<svg width="20" height="18" viewBox="0 0 20 18" fill="none" xmlns="http://www.w3.org/2000/svg">
<path d="M13.75 9.75C13.75 9.94891 13.671 10.1397 13.5303 10.2803C13.3897 10.421 13.1989 10.5 13 10.5H10.75V12.75C10.75 12.9489 10.671 13.1397 10.5303 13.2803C10.3897 13.421 10.1989 13.5 10 13.5C9.80109 13.5 9.61032 13.421 9.46967 13.2803C9.32902 13.1397 9.25 12.9489 9.25 12.75V10.5H7C6.80109 10.5 6.61032 10.421 6.46967 10.2803C6.32902 10.1397 6.25 9.94891 6.25 9.75C6.25 9.55109 6.32902 9.36032 6.46967 9.21967C6.61032 9.07902 6.80109 9 7 9H9.25V6.75C9.25 6.55109 9.32902 6.36032 9.46967 6.21967C9.61032 6.07902 9.80109 6 10 6C10.1989 6 10.3897 6.07902 10.5303 6.21967C10.671 6.36032 10.75 6.55109 10.75 6.75V9H13C13.1989 9 13.3897 9.07902 13.5303 9.21967C13.671 9.36032 13.75 9.55109 13.75 9.75ZM19.75 4.5V15C19.75 15.5967 19.5129 16.169 19.091 16.591C18.669 17.0129 18.0967 17.25 17.5 17.25H2.5C1.90326 17.25 1.33097 17.0129 0.90901 16.591C0.487053 16.169 0.25 15.5967 0.25 15V4.5C0.25 3.90326 0.487053 3.33097 0.90901 2.90901C1.33097 2.48705 1.90326 2.25 2.5 2.25H5.09875L6.15625 0.6675C6.29299 0.462547 6.47811 0.294433 6.69525 0.178014C6.91239 0.0615953 7.15487 0.000456172 7.40125 0H12.5988C12.8451 0.000456172 13.0876 0.0615953 13.3047 0.178014C13.5219 0.294433 13.707 0.462547 13.8438 0.6675L14.9012 2.25H17.5C18.0967 2.25 18.669 2.48705 19.091 2.90901C19.5129 3.33097 19.75 3.90326 19.75 4.5ZM18.25 4.5C18.25 4.30109 18.171 4.11032 18.0303 3.96967C17.8897 3.82902 17.6989 3.75 17.5 3.75H14.5C14.3765 3.75008 14.2549 3.71966 14.146 3.66143C14.037 3.60321 13.9442 3.51899 13.8756 3.41625L12.5988 1.5H7.40125L6.12438 3.41625C6.05583 3.51899 5.96297 3.60321 5.85405 3.66143C5.74512 3.71966 5.62351 3.75008 5.5 3.75H2.5C2.30109 3.75 2.11032 3.82902 1.96967 3.96967C1.82902 4.11032 1.75 4.30109 1.75 4.5V15C1.75 15.1989 1.82902 15.3897 1.96967 15.5303C2.11032 15.671 2.30109 15.75 2.5 15.75H17.5C17.6989 15.75 17.8897 15.671 18.0303 15.5303C18.171 15.3897 18.25 15.1989 18.25 15V4.5Z" fill="black" style="fill:black;fill-opacity:1;"/>
</svg>
