<svg width="18" height="10" viewBox="0 0 18 10" fill="none" xmlns="http://www.w3.org/2000/svg">
<path d="M17.1928 0.713125C17.1361 0.57607 17.04 0.458918 16.9166 0.376482C16.7933 0.294047 16.6483 0.250031 16.5 0.25H1.49998C1.35156 0.249883 1.20644 0.293807 1.08299 0.37621C0.959548 0.458613 0.863328 0.57579 0.806513 0.712907C0.749699 0.850025 0.734846 1.00092 0.763833 1.14648C0.792821 1.29204 0.864347 1.42573 0.969355 1.53063L8.46936 9.03063C8.53901 9.10036 8.62173 9.15568 8.71278 9.19342C8.80382 9.23116 8.90142 9.25059 8.99998 9.25059C9.09854 9.25059 9.19614 9.23116 9.28719 9.19342C9.37823 9.15568 9.46095 9.10036 9.53061 9.03063L17.0306 1.53063C17.1355 1.42568 17.2068 1.29199 17.2357 1.14648C17.2646 1.00096 17.2496 0.850153 17.1928 0.713125ZM8.99998 7.43969L3.31029 1.75H14.6897L8.99998 7.43969Z" fill="black" style="fill:black;fill-opacity:1;"/>
</svg>
