<svg width="24" height="24" viewBox="0 0 24 24" fill="none" xmlns="http://www.w3.org/2000/svg">
<path opacity="0.2" d="M22.5 6V18C22.5 18.3978 22.342 18.7794 22.0607 19.0607C21.7794 19.342 21.3978 19.5 21 19.5H3C2.60218 19.5 2.22064 19.342 1.93934 19.0607C1.65804 18.7794 1.5 18.3978 1.5 18V6C1.5 5.60218 1.65804 5.22064 1.93934 4.93934C2.22064 4.65804 2.60218 4.5 3 4.5H21C21.3978 4.5 21.7794 4.65804 22.0607 4.93934C22.342 5.22064 22.5 5.60218 22.5 6Z" fill="black" style="fill:black;fill-opacity:1;"/>
<path d="M14.0259 8.0353L5.62594 16.2853C5.48566 16.4233 5.29677 16.5006 5.1 16.5006C4.90323 16.5006 4.71434 16.4233 4.57406 16.2853L0.974064 12.75C0.903827 12.6809 0.847882 12.5987 0.809423 12.508C0.770963 12.4173 0.750743 12.3199 0.749916 12.2214C0.749089 12.1229 0.767671 12.0252 0.804603 11.9339C0.841534 11.8426 0.896091 11.7594 0.965158 11.6892C1.03422 11.619 1.11645 11.563 1.20714 11.5246C1.29783 11.4861 1.3952 11.4659 1.4937 11.4651C1.59221 11.4642 1.68991 11.4828 1.78123 11.5197C1.87255 11.5567 1.9557 11.6112 2.02594 11.6803L5.1 14.6991L12.975 6.96468C13.117 6.82519 13.3085 6.74782 13.5076 6.74957C13.6061 6.75044 13.7035 6.77072 13.7942 6.80923C13.8849 6.84775 13.9672 6.90375 14.0363 6.97405C14.1053 7.04435 14.1599 7.12757 14.1968 7.21894C14.2337 7.31032 14.2522 7.40807 14.2514 7.50662C14.2505 7.60517 14.2302 7.70258 14.1917 7.79329C14.1532 7.884 14.0972 7.96624 14.0269 8.0353H14.0259ZM23.0353 6.97405C22.9663 6.9037 22.884 6.84765 22.7933 6.8091C22.7026 6.77055 22.6052 6.75026 22.5066 6.74939C22.4081 6.74852 22.3103 6.76708 22.2189 6.80402C22.1275 6.84097 22.0443 6.89556 21.9741 6.96468L14.0991 14.6991L12.3338 12.9647C12.1918 12.8253 12.0003 12.7481 11.8013 12.7499C11.6024 12.7518 11.4123 12.8325 11.273 12.9745C11.1336 13.1165 11.0564 13.308 11.0582 13.507C11.06 13.7059 11.1408 13.8959 11.2828 14.0353L13.5731 16.2853C13.7134 16.4233 13.9023 16.5006 14.0991 16.5006C14.2958 16.5006 14.4847 16.4233 14.625 16.2853L23.025 8.0353C23.0954 7.96633 23.1515 7.88415 23.1902 7.79347C23.2288 7.70279 23.2492 7.60538 23.2501 7.50682C23.2511 7.40825 23.2326 7.31047 23.1958 7.21905C23.1589 7.12764 23.1044 7.04438 23.0353 6.97405Z" fill="black" style="fill:black;fill-opacity:1;"/>
</svg>
