<svg width="42" height="50" viewBox="0 0 42 50" fill="none" xmlns="http://www.w3.org/2000/svg">
<path d="M21.9811 50C16.6388 49.4725 12.0192 47.36 8.1493 43.7457C-4.6663 31.7695 -2.00007 11.2617 13.5706 2.98313C19.0682 0.0608305 25.0149 -1.04331 31.1415 1.17233C37.9687 3.63826 42.3417 10.7808 41.5325 17.9823C40.7039 25.358 35.1001 31.1805 27.8167 32.2136C26.9313 32.3386 26.0384 32.4465 25.1455 32.4834C20.9896 32.6575 17.6254 35.2781 16.587 39.1793C15.5535 43.066 17.1789 47.0702 20.6714 49.2344C21.0999 49.499 21.5407 49.744 21.9765 49.9986C21.9779 49.9994 21.9795 50 21.9811 50ZM10.845 23.7845C10.6997 25.5491 12.6639 26.2231 14.128 25.2181C17.4724 22.919 21.2599 22.14 25.2615 21.7585C28.4844 21.4512 30.9718 19.2446 30.8898 16.1494C30.8085 13.0662 28.103 11.1151 25.0173 10.8397C22.8512 10.6464 21.4335 11.1896 19.3766 12.1205C14.4434 14.3532 11.2375 19.0206 10.845 23.7845Z" fill="#FEC40E"/>
</svg>
