<svg width="24" height="16" viewBox="0 0 24 16" fill="none" xmlns="http://www.w3.org/2000/svg">
<path d="M23.1853 7.69625C23.1525 7.62219 22.3584 5.86062 20.5931 4.09531C18.2409 1.74312 15.27 0.5 12 0.5C8.73 0.5 5.75906 1.74312 3.40688 4.09531C1.64156 5.86062 0.843751 7.625 0.814688 7.69625C0.772044 7.79217 0.75001 7.89597 0.75001 8.00094C0.75001 8.10591 0.772044 8.20971 0.814688 8.30562C0.847501 8.37969 1.64156 10.1403 3.40688 11.9056C5.75906 14.2569 8.73 15.5 12 15.5C15.27 15.5 18.2409 14.2569 20.5931 11.9056C22.3584 10.1403 23.1525 8.37969 23.1853 8.30562C23.228 8.20971 23.25 8.10591 23.25 8.00094C23.25 7.89597 23.228 7.79217 23.1853 7.69625ZM12 14C9.11438 14 6.59344 12.9509 4.50656 10.8828C3.65029 10.0313 2.9218 9.06027 2.34375 8C2.92165 6.93963 3.65015 5.9686 4.50656 5.11719C6.59344 3.04906 9.11438 2 12 2C14.8856 2 17.4066 3.04906 19.4934 5.11719C20.3514 5.9684 21.0815 6.93942 21.6609 8C20.985 9.26188 18.0403 14 12 14ZM12 3.5C11.11 3.5 10.24 3.76392 9.49994 4.25839C8.75991 4.75285 8.18314 5.45566 7.84254 6.27792C7.50195 7.10019 7.41283 8.00499 7.58647 8.87791C7.7601 9.75082 8.18868 10.5526 8.81802 11.182C9.44736 11.8113 10.2492 12.2399 11.1221 12.4135C11.995 12.5872 12.8998 12.4981 13.7221 12.1575C14.5443 11.8169 15.2471 11.2401 15.7416 10.5001C16.2361 9.76005 16.5 8.89002 16.5 8C16.4988 6.80691 16.0243 5.66303 15.1806 4.81939C14.337 3.97575 13.1931 3.50124 12 3.5ZM12 11C11.4067 11 10.8266 10.8241 10.3333 10.4944C9.83994 10.1648 9.45543 9.69623 9.22836 9.14805C9.0013 8.59987 8.94189 7.99667 9.05764 7.41473C9.1734 6.83279 9.45912 6.29824 9.87868 5.87868C10.2982 5.45912 10.8328 5.1734 11.4147 5.05764C11.9967 4.94189 12.5999 5.0013 13.1481 5.22836C13.6962 5.45542 14.1648 5.83994 14.4944 6.33329C14.8241 6.82664 15 7.40666 15 8C15 8.79565 14.6839 9.55871 14.1213 10.1213C13.5587 10.6839 12.7957 11 12 11Z" fill="black" style="fill:black;fill-opacity:1;"/>
</svg>
