<svg width="24" height="24" viewBox="0 0 24 24" fill="none" xmlns="http://www.w3.org/2000/svg">
<path opacity="0.2" d="M20.8031 5.75437L14.25 12.75V18.2484C14.2501 18.3719 14.2197 18.4936 14.1614 18.6025C14.1032 18.7114 14.019 18.8043 13.9163 18.8728L10.9163 20.8725C10.8034 20.9478 10.6723 20.9911 10.5368 20.9977C10.4013 21.0044 10.2665 20.9741 10.1468 20.9103C10.0272 20.8464 9.92706 20.7512 9.85718 20.635C9.7873 20.5187 9.75026 20.3857 9.75001 20.25V12.75L3.19688 5.75437C3.09929 5.64697 3.03495 5.51357 3.01167 5.37033C2.98839 5.22709 3.00716 5.08018 3.06571 4.94739C3.12426 4.81461 3.22008 4.70167 3.34154 4.62226C3.463 4.54284 3.60489 4.50038 3.75001 4.5H20.25C20.3951 4.50038 20.537 4.54284 20.6585 4.62226C20.7799 4.70167 20.8758 4.81461 20.9343 4.94739C20.9929 5.08018 21.0116 5.22709 20.9883 5.37033C20.9651 5.51357 20.9007 5.64697 20.8031 5.75437Z" fill="black" style="fill:black;fill-opacity:1;"/>
<path d="M21.6187 4.64343C21.5033 4.37672 21.312 4.14983 21.0686 3.99098C20.8253 3.83213 20.5406 3.74833 20.25 3.74999H3.74997C3.45966 3.75057 3.17575 3.83537 2.93269 3.99412C2.68962 4.15288 2.49785 4.37875 2.38063 4.64435C2.26341 4.90995 2.22579 5.20386 2.27232 5.49042C2.31886 5.77698 2.44755 6.04388 2.64279 6.25874L2.65029 6.26718L8.99998 13.0472V20.25C8.99991 20.5215 9.07353 20.7879 9.21297 21.0208C9.35241 21.2537 9.55246 21.4445 9.79178 21.5726C10.0311 21.7008 10.3007 21.7616 10.5719 21.7486C10.843 21.7356 11.1056 21.6492 11.3315 21.4987L14.3315 19.4981C14.5372 19.3611 14.7058 19.1755 14.8224 18.9576C14.939 18.7398 15 18.4965 15 18.2494V13.0472L21.3506 6.26718L21.3581 6.25874C21.5554 6.04486 21.6853 5.77761 21.7317 5.49034C21.778 5.20307 21.7387 4.90851 21.6187 4.64343ZM13.7043 12.2419C13.5746 12.3794 13.5016 12.5609 13.5 12.75V18.2494L10.5 20.25V12.75C10.5 12.5595 10.4276 12.3762 10.2975 12.2372L3.74997 5.24999H20.25L13.7043 12.2419Z" fill="black" style="fill:black;fill-opacity:1;"/>
</svg>
