<svg width="138" height="157" viewBox="0 0 138 157" fill="none" xmlns="http://www.w3.org/2000/svg">
<path d="M130.069 77.9319H106.436C102.089 77.9319 98.5583 81.456 98.5583 85.8034V109.436C98.5583 109.58 98.5895 109.711 98.602 109.848L78.0501 130.394H66.6484L52.259 116.01C52.496 115.15 52.652 114.264 52.652 113.328V81.8178C52.652 80.8884 52.4898 79.9965 52.259 79.1357L60.118 71.283C60.2552 71.283 60.3862 71.3204 60.5297 71.3204H84.1564C88.5101 71.3204 92.0341 67.7964 92.0341 63.4428V39.816C92.0341 35.4686 88.5101 31.9383 84.1564 31.9383H60.5297C60.3862 31.9383 60.2552 31.9695 60.118 31.9757L47.7432 19.601V6.01619C47.7432 3.11586 45.3856 0.764404 42.4915 0.764404H26.7361C23.8358 0.764404 21.4843 3.11586 21.4843 6.01619V21.7715C21.4843 24.6656 23.8358 27.0233 26.7361 27.0233H40.3147L52.6956 39.3981C52.6894 39.5353 52.652 39.6725 52.652 39.8097V63.4428C52.652 63.58 52.6832 63.711 52.6956 63.8482L44.8367 71.7071C43.9759 71.4764 43.084 71.3204 42.1484 71.3204H10.6439C4.84328 71.3204 0.140381 76.0171 0.140381 81.8178V113.328C0.140381 119.129 4.84328 123.832 10.6439 123.832H42.1546C43.0902 123.832 43.9759 123.67 44.8429 123.445L59.2198 137.822V151.401C59.2198 154.301 61.5713 156.653 64.4716 156.653H80.227C83.1273 156.653 85.4787 154.301 85.4787 151.401V137.822L106.031 117.27C106.168 117.27 106.299 117.308 106.442 117.308H130.075C134.423 117.308 137.953 113.778 137.953 109.43V85.8034C137.953 81.4498 134.423 77.9257 130.075 77.9257L130.069 77.9319Z" fill="white" style="fill:white;fill-opacity:1;"/>
</svg>
