<svg width="23" height="19" viewBox="0 0 23 19" fill="none" xmlns="http://www.w3.org/2000/svg">
<path d="M21.5934 11.2244C21.3144 11.0096 20.9895 10.8622 20.6442 10.7934C20.2988 10.7246 19.9422 10.7364 19.6022 10.8278L15.6797 11.7297C15.7709 11.3442 15.7738 10.943 15.6879 10.5563C15.6021 10.1695 15.4298 9.80721 15.1841 9.4965C14.9383 9.18579 14.6254 8.93474 14.2688 8.76216C13.9122 8.58958 13.5212 8.49996 13.125 8.5H8.43188C8.03775 8.49901 7.64733 8.57614 7.28319 8.72691C6.91904 8.87769 6.58838 9.09913 6.31031 9.37844L4.18969 11.5H1.5C1.10218 11.5 0.720644 11.658 0.43934 11.9393C0.158035 12.2206 0 12.6022 0 13L0 16.75C0 17.1478 0.158035 17.5294 0.43934 17.8107C0.720644 18.092 1.10218 18.25 1.5 18.25H11.25C11.3113 18.25 11.3724 18.2425 11.4319 18.2275L17.4319 16.7275C17.4701 16.7184 17.5075 16.7058 17.5434 16.69L21.1875 15.1394L21.2288 15.1206C21.579 14.9456 21.8789 14.6843 22.1002 14.3614C22.3215 14.0385 22.457 13.6645 22.4939 13.2747C22.5307 12.8849 22.4678 12.4922 22.3109 12.1335C22.154 11.7748 21.9084 11.4619 21.5972 11.2244H21.5934ZM1.5 13H3.75V16.75H1.5V13ZM20.5716 13.7697L17.0091 15.2866L11.1562 16.75H5.25V12.5603L7.37156 10.4397C7.51035 10.2998 7.67555 10.1889 7.85758 10.1134C8.03961 10.0379 8.23482 9.99937 8.43188 10H13.125C13.4234 10 13.7095 10.1185 13.9205 10.3295C14.1315 10.5405 14.25 10.8266 14.25 11.125C14.25 11.4234 14.1315 11.7095 13.9205 11.9205C13.7095 12.1315 13.4234 12.25 13.125 12.25H10.5C10.3011 12.25 10.1103 12.329 9.96967 12.4697C9.82902 12.6103 9.75 12.8011 9.75 13C9.75 13.1989 9.82902 13.3897 9.96967 13.5303C10.1103 13.671 10.3011 13.75 10.5 13.75H13.5C13.5565 13.7498 13.6127 13.7436 13.6678 13.7313L19.9491 12.2866L19.9781 12.2791C20.1699 12.2258 20.3745 12.2454 20.5527 12.334C20.7309 12.4226 20.87 12.5739 20.9433 12.7589C21.0167 12.9439 21.0189 13.1495 20.9498 13.3361C20.8806 13.5227 20.7449 13.6771 20.5687 13.7697H20.5716ZM15.375 7C15.5603 7.00021 15.7453 6.98516 15.9281 6.955C16.1338 7.56582 16.51 8.10499 17.0124 8.50876C17.5147 8.91253 18.1222 9.16401 18.763 9.23348C19.4037 9.30295 20.051 9.18749 20.6282 8.90077C21.2054 8.61404 21.6884 8.16803 22.0202 7.61547C22.352 7.06291 22.5186 6.42691 22.5004 5.78266C22.4821 5.1384 22.2798 4.51284 21.9173 3.97993C21.5548 3.44703 21.0473 3.02905 20.4548 2.77543C19.8623 2.52181 19.2096 2.44315 18.5737 2.54875C18.3757 1.96023 18.0192 1.43775 17.5434 1.03879C17.0676 0.639839 16.4909 0.379884 15.8769 0.287536C15.2629 0.195187 14.6353 0.274025 14.0631 0.515374C13.491 0.756723 12.9966 1.15123 12.6342 1.65547C12.2719 2.15971 12.0556 2.75414 12.0093 3.37335C11.963 3.99256 12.0885 4.61254 12.3718 5.16506C12.6552 5.71759 13.0854 6.18123 13.6153 6.50497C14.1452 6.82872 14.7541 7.00001 15.375 7ZM21 5.875C21 6.24584 20.89 6.60835 20.684 6.9167C20.478 7.22504 20.1851 7.46536 19.8425 7.60728C19.4999 7.74919 19.1229 7.78632 18.7592 7.71397C18.3955 7.64163 18.0614 7.46305 17.7992 7.20083C17.537 6.9386 17.3584 6.60451 17.286 6.2408C17.2137 5.87708 17.2508 5.50008 17.3927 5.15747C17.5346 4.81486 17.775 4.52202 18.0833 4.316C18.3916 4.10997 18.7542 4 19.125 4C19.6223 4 20.0992 4.19755 20.4508 4.54918C20.8025 4.90081 21 5.37772 21 5.875ZM15.375 1.75C15.784 1.75021 16.1818 1.88416 16.5076 2.13145C16.8334 2.37874 17.0695 2.72579 17.1797 3.11969C16.7956 3.38997 16.4721 3.73744 16.2299 4.13989C15.9878 4.54234 15.8323 4.9909 15.7734 5.45688C15.6425 5.48515 15.509 5.49961 15.375 5.5C14.8777 5.5 14.4008 5.30246 14.0492 4.95083C13.6975 4.5992 13.5 4.12228 13.5 3.625C13.5 3.12772 13.6975 2.65081 14.0492 2.29918C14.4008 1.94755 14.8777 1.75 15.375 1.75Z" fill="black" style="fill:black;fill-opacity:1;"/>
</svg>
