<svg width="8" height="28" viewBox="0 0 8 28" fill="none" xmlns="http://www.w3.org/2000/svg">
<path d="M4 0.333333C2.52724 0.333333 1.33333 1.52724 1.33333 3C1.33333 4.47276 2.52724 5.66667 4 5.66667C5.47276 5.66667 6.66667 4.47276 6.66667 3C6.66667 1.52724 5.47276 0.333333 4 0.333333ZM3.64645 27.3536C3.84171 27.5488 4.15829 27.5488 4.35355 27.3536L7.53553 24.1716C7.7308 23.9763 7.7308 23.6597 7.53553 23.4645C7.34027 23.2692 7.02369 23.2692 6.82843 23.4645L4 26.2929L1.17157 23.4645C0.97631 23.2692 0.659727 23.2692 0.464465 23.4645C0.269203 23.6597 0.269203 23.9763 0.464465 24.1716L3.64645 27.3536ZM4 3L3.5 3L3.5 4L4 4L4.5 4L4.5 3L4 3ZM4 6L3.5 6L3.5 8L4 8L4.5 8L4.5 6L4 6ZM4 10L3.5 10L3.5 12L4 12L4.5 12L4.5 10L4 10ZM4 14L3.5 14L3.5 16L4 16L4.5 16L4.5 14L4 14ZM4 18L3.5 18L3.5 20L4 20L4.5 20L4.5 18L4 18ZM4 22L3.5 22L3.5 24L4 24L4.5 24L4.5 22L4 22ZM4 26L3.5 26L3.5 27L4 27L4.5 27L4.5 26L4 26Z" fill="#698596"/>
</svg>
