<svg width="12" height="22" viewBox="0 0 12 22" fill="none" xmlns="http://www.w3.org/2000/svg">
<path d="M11.25 5.75001C11.2501 4.74366 10.961 3.75849 10.417 2.91181C9.87308 2.06513 9.09726 1.39263 8.18194 0.97438C7.26663 0.556133 6.25038 0.40977 5.25424 0.552722C4.2581 0.695673 3.32403 1.12191 2.56327 1.78068C1.80251 2.43946 1.24711 3.303 0.963224 4.26847C0.679336 5.23395 0.678918 6.26068 0.962018 7.22638C1.24512 8.19209 1.79981 9.05609 2.56003 9.71548C3.32025 10.3749 4.25397 10.8019 5.25 10.9456V20.75C5.25 20.9489 5.32902 21.1397 5.46967 21.2803C5.61032 21.421 5.80109 21.5 6 21.5C6.19891 21.5 6.38968 21.421 6.53033 21.2803C6.67098 21.1397 6.75 20.9489 6.75 20.75V10.9456C7.99867 10.7636 9.14027 10.1387 9.9664 9.18484C10.7925 8.23099 11.2481 7.01188 11.25 5.75001ZM6 9.50001C5.25832 9.50001 4.5333 9.28008 3.91661 8.86802C3.29993 8.45597 2.81928 7.8703 2.53545 7.18507C2.25162 6.49985 2.17736 5.74585 2.32205 5.01842C2.46675 4.29099 2.8239 3.62281 3.34835 3.09836C3.8728 2.57391 4.54098 2.21676 5.26841 2.07207C5.99584 1.92737 6.74984 2.00163 7.43506 2.28546C8.12029 2.56929 8.70596 3.04994 9.11801 3.66662C9.53007 4.28331 9.75 5.00833 9.75 5.75001C9.75 6.24247 9.653 6.7301 9.46455 7.18507C9.27609 7.64005 8.99987 8.05344 8.65165 8.40166C8.30343 8.74988 7.89003 9.0261 7.43506 9.21456C6.98009 9.40302 6.49246 9.50001 6 9.50001Z" fill="black" style="fill:black;fill-opacity:1;"/>
</svg>
