<svg width="183" height="60" viewBox="0 0 183 60" fill="none" xmlns="http://www.w3.org/2000/svg">
<mask id="mask0_37_1222" style="mask-type:luminance" maskUnits="userSpaceOnUse" x="47" y="0" width="21" height="23">
<path d="M47.6741 0H67.806V22.3939H47.6741V0Z" fill="white"/>
</mask>
<g mask="url(#mask0_37_1222)">
<mask id="mask1_37_1222" style="mask-type:luminance" maskUnits="userSpaceOnUse" x="47" y="0" width="21" height="23">
<path d="M67.7826 0.0352783V22.2085L47.81 0.656932L47.6951 0.993878V0.0352783H67.7826Z" fill="white"/>
</mask>
<g mask="url(#mask1_37_1222)">
<path d="M-1.21973 -1.21979H76.342V61.2198H-1.21973V-1.21979Z" fill="white"/>
</g>
</g>
<mask id="mask2_37_1222" style="mask-type:luminance" maskUnits="userSpaceOnUse" x="47" y="37" width="21" height="23">
<path d="M47.6741 37.8046H67.806V60H47.6741V37.8046Z" fill="white"/>
</mask>
<g mask="url(#mask2_37_1222)">
<mask id="mask3_37_1222" style="mask-type:luminance" maskUnits="userSpaceOnUse" x="47" y="37" width="21" height="23">
<path d="M65.9855 39.761L67.7826 37.8137V59.966H47.6951V59.5533L65.9855 39.761Z" fill="white"/>
</mask>
<g mask="url(#mask3_37_1222)">
<path d="M-1.21973 -1.21979H76.342V61.2198H-1.21973V-1.21979Z" fill="white"/>
</g>
</g>
<mask id="mask4_37_1222" style="mask-type:luminance" maskUnits="userSpaceOnUse" x="0" y="0" width="76" height="60">
<path d="M0 0.487122H75.0894V59.7558H0V0.487122Z" fill="white"/>
</mask>
<g mask="url(#mask4_37_1222)">
<mask id="mask5_37_1222" style="mask-type:luminance" maskUnits="userSpaceOnUse" x="0" y="0" width="76" height="60">
<path d="M75.0058 29.9987L67.785 37.8138L65.9879 39.761L47.6975 59.5533V39.761H14.7093C14.7093 39.761 8.52024 40.0875 7.87639 44.8818C7.87639 44.8818 7.61911 48.0175 11.4156 49.8655C11.4156 49.8655 0.0587057 47.0824 0.0312799 35.3572C0.00646594 24.1883 15.4237 19.5416 21.3791 19.9047H47.6948V0.993868L47.8098 0.656921L67.7823 22.2084L75.0058 29.9987Z" fill="white"/>
</mask>
<g mask="url(#mask5_37_1222)">
<path d="M-1.21973 -1.21979H76.342V61.2198H-1.21973V-1.21979Z" fill="#F15B28"/>
</g>
</g>
<mask id="mask6_37_1222" style="mask-type:luminance" maskUnits="userSpaceOnUse" x="8" y="19" width="34" height="41">
<path d="M8.04883 19.3849H41.3216V60H8.04883V19.3849Z" fill="white"/>
</mask>
<g mask="url(#mask6_37_1222)">
<mask id="mask7_37_1222" style="mask-type:luminance" maskUnits="userSpaceOnUse" x="8" y="19" width="34" height="41">
<path d="M21.5373 19.4058H41.3218L28.049 59.9661H8.07251C8.07251 59.9661 17.6598 31.0814 21.5373 19.4058Z" fill="white"/>
</mask>
<g mask="url(#mask7_37_1222)">
<path d="M-1.21973 -1.21979H76.342V61.2198H-1.21973V-1.21979Z" fill="white"/>
</g>
</g>
<mask id="mask8_37_1222" style="mask-type:luminance" maskUnits="userSpaceOnUse" x="21" y="0" width="28" height="20">
<path d="M21.2617 0H48.049V20H21.2617V0Z" fill="white"/>
</mask>
<g mask="url(#mask8_37_1222)">
<mask id="mask9_37_1222" style="mask-type:luminance" maskUnits="userSpaceOnUse" x="21" y="0" width="28" height="20">
<path d="M48.0254 0.0352484L47.8099 0.659514L47.695 0.99646L41.1507 19.902H21.3818C27.4926 1.00821 45.0582 0.0678981 47.695 0.0352484C47.9105 0.0339425 48.028 0.0352484 48.028 0.0352484" fill="white"/>
</mask>
<g mask="url(#mask9_37_1222)">
<path d="M-1.21973 -1.21979H76.342V61.2198H-1.21973V-1.21979Z" fill="white"/>
</g>
</g>
<path d="M99.9817 23.1749H95.4212L93.9114 18.7554H86.6553L85.1404 23.1749H80.606L87.6009 4.00812H92.9398L99.9817 23.1749ZM87.9561 14.9732H92.6107L90.2703 8.30745L87.9561 14.9732Z" fill="white"/>
<path d="M105.937 15.9449L106.078 16.2009L105.937 16.4412V23.1749H101.497V4.00812H105.937V15.9449ZM110.947 16.1539L115.299 23.1749H110.216L106.078 16.2009L110.31 9.42016H115.131L110.947 16.1539Z" fill="white"/>
<path d="M131.508 16.4151L132.667 9.42017H137.275L134.13 23.1749H128.53L127.302 16.4151C127.208 15.8796 127.109 15.3481 127.004 14.8218C126.903 14.2928 126.797 13.7691 126.686 13.2493C126.623 13.6921 126.54 14.1661 126.435 14.6703C126.333 15.1718 126.213 15.7621 126.075 16.4412L124.842 23.1749H119.336L116.102 9.42017H120.683L121.843 16.4151C121.969 17.0315 122.078 17.58 122.172 18.0606C122.266 18.5412 122.353 18.9944 122.434 19.4189L122.977 16.4151L124.157 9.42017H129.193L130.421 16.3942L130.943 19.2047C131.019 18.7946 131.108 18.3479 131.21 17.8673C131.314 17.3867 131.414 16.9035 131.508 16.4151Z" fill="white"/>
<path d="M145.543 8.90295C146.866 8.90295 148.012 9.07273 148.981 9.40968C149.952 9.74793 150.701 10.3187 151.227 11.1231C151.756 11.925 152.021 13.0351 152.021 14.456V22.8928C151.073 23.0991 150.02 23.2637 148.861 23.389C147.704 23.5144 146.622 23.5771 145.617 23.5771C144.23 23.5771 143.02 23.4361 141.986 23.154C140.954 22.8693 140.155 22.4004 139.588 21.7487C139.02 21.0944 138.737 20.2063 138.737 19.0845V19.0636C138.737 17.5839 139.296 16.5012 140.413 15.8143C141.534 15.1286 143.001 14.7852 144.812 14.7852C145.285 14.7852 145.747 14.7982 146.196 14.8217C146.646 14.8465 147.113 14.8975 147.602 14.9732V14.5971C147.602 13.8422 147.33 13.3172 146.787 13.0247C146.243 12.7321 145.507 12.5859 144.577 12.5859C143.929 12.5859 143.156 12.6616 142.258 12.8105C141.362 12.9607 140.535 13.1696 139.776 13.4374L140.795 9.56118C141.111 9.45408 141.526 9.35222 142.038 9.25818C142.55 9.16154 143.112 9.07796 143.725 9.00743C144.338 8.93822 144.944 8.90295 145.543 8.90295ZM143.302 18.7815V18.8024C143.302 19.3078 143.524 19.6787 143.971 19.9151C144.42 20.1528 145.031 20.2703 145.805 20.2703C146.089 20.2703 146.386 20.2586 146.693 20.2338C146.998 20.2103 147.301 20.1815 147.602 20.1502V17.5016C147.301 17.4389 146.99 17.3971 146.667 17.3762C146.343 17.3527 146.055 17.3397 145.805 17.3397C145.031 17.3397 144.42 17.4468 143.971 17.6583C143.524 17.8712 143.302 18.246 143.302 18.7815Z" fill="white"/>
<path d="M160.951 8.90295C162.274 8.90295 163.419 9.07273 164.389 9.40968C165.36 9.74793 166.109 10.3187 166.635 11.1231C167.164 11.925 167.429 13.0351 167.429 14.456V22.8928C166.481 23.0991 165.428 23.2637 164.268 23.389C163.111 23.5144 162.03 23.5771 161.024 23.5771C159.637 23.5771 158.428 23.4361 157.394 23.154C156.362 22.8693 155.563 22.4004 154.996 21.7487C154.428 21.0944 154.144 20.2063 154.144 19.0845V19.0636C154.144 17.5839 154.703 16.5012 155.821 15.8143C156.942 15.1286 158.408 14.7852 160.22 14.7852C160.693 14.7852 161.155 14.7982 161.604 14.8217C162.053 14.8465 162.521 14.8975 163.009 14.9732V14.5971C163.009 13.8422 162.738 13.3172 162.194 13.0247C161.651 12.7321 160.915 12.5859 159.985 12.5859C159.337 12.5859 158.564 12.6616 157.665 12.8105C156.769 12.9607 155.943 13.1696 155.184 13.4374L156.203 9.56118C156.519 9.45408 156.934 9.35222 157.446 9.25818C157.958 9.16154 158.519 9.07796 159.133 9.00743C159.746 8.93822 160.352 8.90295 160.951 8.90295ZM158.71 18.7815V18.8024C158.71 19.3078 158.932 19.6787 159.379 19.9151C159.828 20.1528 160.439 20.2703 161.212 20.2703C161.497 20.2703 161.793 20.2586 162.1 20.2338C162.406 20.2103 162.709 20.1815 163.009 20.1502V17.5016C162.709 17.4389 162.398 17.3971 162.074 17.3762C161.75 17.3527 161.463 17.3397 161.212 17.3397C160.439 17.3397 159.828 17.4468 159.379 17.6583C158.932 17.8712 158.71 18.246 158.71 18.7815Z" fill="white"/>
<path d="M174.28 23.1749H169.839V9.54029C170.609 9.39794 171.412 9.27256 172.248 9.16417C173.083 9.05316 173.863 8.96565 174.588 8.90297C175.311 8.83767 175.902 8.80371 176.359 8.80371C177.226 8.80371 178.053 8.88729 178.84 9.05446C179.63 9.21902 180.336 9.50634 180.956 9.91642C181.579 10.3278 182.069 10.8802 182.424 11.5724C182.779 12.2659 182.957 13.1474 182.957 14.2158V23.1749H178.511V14.7381C178.511 14.0277 178.32 13.5236 177.942 13.2232C177.566 12.9241 176.983 12.7739 176.197 12.7739C175.675 12.7739 175.035 12.8392 174.28 12.9672V23.1749Z" fill="white"/>
<path d="M92.8457 50.7679H80.606V31.6011H92.7256V33.137H82.2358V40.0849H91.8271V41.6207H82.2358V49.2321H92.8457V50.7679Z" fill="white"/>
<path d="M101.258 44.1021L106.361 50.7679H104.449L100.265 45.3558L96.0597 50.7679H94.2366L99.3456 44.1282L94.5239 37.8176H96.462L100.338 42.8483L104.188 37.8176H106.079L101.258 44.1021Z" fill="white"/>
<path d="M109.976 55.9919H108.326V38.267C109.064 38.0449 109.858 37.8516 110.708 37.6871C111.561 37.5199 112.49 37.4363 113.497 37.4363C114.931 37.4363 116.162 37.7367 117.186 38.3349C118.209 38.9343 118.993 39.7427 119.536 40.7588C120.08 41.7762 120.351 42.9307 120.351 44.2223V44.2693C120.351 45.544 120.082 46.6906 119.547 47.7067C119.014 48.724 118.238 49.5325 117.222 50.1306C116.205 50.7301 114.978 51.0291 113.544 51.0291C112.962 51.0291 112.372 50.9691 111.774 50.8515C111.174 50.734 110.575 50.5955 109.976 50.4388V55.9919ZM113.497 49.5403C114.632 49.5403 115.584 49.3039 116.355 48.8298C117.128 48.3571 117.708 47.7197 118.095 46.9179C118.481 46.1134 118.674 45.2305 118.674 44.2693V44.2223C118.674 43.2441 118.481 42.3547 118.095 41.5528C117.708 40.7483 117.128 40.1097 116.355 39.6356C115.584 39.1629 114.632 38.9252 113.497 38.9252C112.821 38.9252 112.203 38.9617 111.643 39.0349C111.085 39.1054 110.53 39.202 109.976 39.3274V48.9239C110.543 49.0806 111.127 49.2242 111.726 49.3522C112.325 49.4776 112.915 49.5403 113.497 49.5403Z" fill="white"/>
<path d="M124.628 50.7679H122.977V38.3609C123.764 38.1415 124.551 37.9979 125.339 37.9273C126.125 37.8542 126.787 37.8176 127.324 37.8176H129.664V39.3535H127.726C127.158 39.3535 126.578 39.394 125.986 39.4736C125.397 39.5507 124.944 39.6356 124.628 39.7296V50.7679Z" fill="white"/>
<path d="M144.195 44.3633V44.7395H133.397C133.473 45.638 133.717 46.4555 134.129 47.1895C134.539 47.9209 135.111 48.4994 135.842 48.9239C136.574 49.3496 137.443 49.5612 138.454 49.5612C139.428 49.5612 140.279 49.4084 141.003 49.1015C141.731 48.7959 142.338 48.4524 142.827 48.0724L143.537 49.3992C142.952 49.825 142.242 50.2024 141.406 50.5329C140.572 50.8633 139.573 51.0291 138.407 51.0291C137.02 51.0291 135.823 50.7392 134.813 50.1567C133.806 49.5716 133.034 48.7711 132.499 47.7537C131.962 46.7376 131.694 45.5675 131.694 44.2432V44.2223C131.694 42.9307 131.941 41.7722 132.436 40.7483C132.934 39.7244 133.651 38.9173 134.588 38.3244C135.525 37.7328 136.639 37.4363 137.932 37.4363C139.29 37.4363 140.431 37.7328 141.359 38.3244C142.289 38.9173 142.994 39.7336 143.474 40.7745C143.955 41.8127 144.195 43.009 144.195 44.3633ZM137.932 38.9043C137.067 38.9043 136.315 39.0976 135.675 39.4841C135.038 39.8707 134.528 40.3957 134.15 41.0566C133.773 41.7187 133.529 42.4592 133.418 43.2767H142.471C142.409 42.4723 142.2 41.7396 141.845 41.0775C141.489 40.4166 140.988 39.889 140.34 39.4946C139.695 39.1015 138.893 38.9043 137.932 38.9043Z" fill="white"/>
<path d="M151.453 51.0291C150.536 51.0291 149.664 50.9482 148.836 50.7888C148.01 50.6321 147.203 50.3814 146.417 50.0366L146.892 48.6418C147.599 48.9552 148.342 49.1877 149.123 49.3366C149.903 49.4868 150.633 49.5612 151.312 49.5612C152.081 49.5612 152.765 49.4985 153.365 49.3731C153.963 49.2478 154.436 49.0323 154.781 48.7254C155.128 48.4158 155.303 47.994 155.303 47.4612C155.303 47.0328 155.215 46.6749 155.042 46.385C154.871 46.0925 154.546 45.8339 154.065 45.6066C153.584 45.3768 152.879 45.1443 151.949 44.9066L150.769 44.6245C149.302 44.2458 148.261 43.7613 147.645 43.1723C147.031 42.5807 146.725 41.7879 146.725 40.7954C146.725 39.7545 147.154 38.9395 148.01 38.3505C148.87 37.7589 150.055 37.4625 151.568 37.4625C153.445 37.4625 155.06 37.7942 156.416 38.455L155.919 39.8237C155.289 39.5103 154.606 39.283 153.872 39.1394C153.14 38.997 152.436 38.9252 151.761 38.9252C150.688 38.9252 149.86 39.0714 149.275 39.364C148.692 39.6565 148.402 40.1254 148.402 40.7692C148.402 41.3857 148.642 41.8637 149.123 42.2006C149.604 42.5389 150.442 42.8575 151.641 43.1566L152.681 43.4439C154.24 43.8383 155.346 44.3307 155.998 44.9223C156.652 45.5113 156.98 46.3171 156.98 47.341C156.98 48.5399 156.502 49.4541 155.549 50.0836C154.598 50.7144 153.232 51.0291 151.453 51.0291Z" fill="white"/>
<path d="M164.096 51.0291C163.179 51.0291 162.307 50.9482 161.479 50.7888C160.653 50.6321 159.846 50.3814 159.06 50.0366L159.535 48.6418C160.242 48.9552 160.985 49.1877 161.766 49.3366C162.546 49.4868 163.276 49.5612 163.955 49.5612C164.724 49.5612 165.408 49.4985 166.008 49.3731C166.606 49.2478 167.079 49.0323 167.423 48.7254C167.771 48.4158 167.946 47.994 167.946 47.4612C167.946 47.0328 167.858 46.6749 167.685 46.385C167.514 46.0925 167.188 45.8339 166.708 45.6066C166.227 45.3768 165.522 45.1443 164.592 44.9066L163.411 44.6245C161.945 44.2458 160.904 43.7613 160.287 43.1723C159.674 42.5807 159.368 41.7879 159.368 40.7954C159.368 39.7545 159.796 38.9395 160.653 38.3505C161.512 37.7589 162.698 37.4625 164.211 37.4625C166.087 37.4625 167.703 37.7942 169.059 38.455L168.562 39.8237C167.931 39.5103 167.248 39.283 166.514 39.1394C165.783 38.997 165.079 38.9252 164.404 38.9252C163.33 38.9252 162.502 39.0714 161.917 39.364C161.335 39.6565 161.045 40.1254 161.045 40.7692C161.045 41.3857 161.285 41.8637 161.766 42.2006C162.246 42.5389 163.085 42.8575 164.284 43.1566L165.323 43.4439C166.883 43.8383 167.989 44.3307 168.641 44.9223C169.295 45.5113 169.623 46.3171 169.623 47.341C169.623 48.5399 169.145 49.4541 168.191 50.0836C167.241 50.7144 165.874 51.0291 164.096 51.0291Z" fill="white"/>
</svg>
