<svg width="800" height="342" viewBox="0 0 800 342" fill="none" xmlns="http://www.w3.org/2000/svg">
<path d="M265.746 35.8382L255.072 46.7187L244.191 35.8382L255.072 25.1641L265.746 35.8382ZM281.37 50.0189H295.035V134.072C295.035 140.427 292.973 145.648 288.847 149.748C284.748 153.873 279.527 155.936 273.171 155.936H215.108V66.4685H228.721V127.471H270.851C273.906 127.471 276.42 126.466 278.38 124.48C280.365 122.521 281.37 120.02 281.37 116.952V50.0189Z" fill="white" style="fill:white;fill-opacity:1;"/>
<path d="M311.471 121.232V6.08496H325.085V121.232H311.471Z" fill="white" style="fill:white;fill-opacity:1;"/>
<path d="M418.501 87.3526V121.232H410.147V134.071C410.147 140.427 408.085 145.648 403.959 149.748C399.834 153.873 394.587 155.936 388.232 155.936H341.564V127.471H385.963C388.257 127.471 390.256 126.878 391.944 125.718C393.659 124.583 394.896 123.088 395.657 121.232H359.973C354.572 121.232 350.15 119.517 346.721 116.075C343.279 112.607 341.564 108.185 341.564 102.822V57.238C341.564 50.8825 343.601 45.6615 347.701 41.562C351.826 37.4367 357.06 35.374 363.428 35.374H410.147V87.3526H418.501ZM396.482 87.3526V77.9676H358.994C357.885 77.9676 356.983 78.3286 356.261 79.0505C355.539 79.7466 355.178 80.6361 355.178 81.7319V87.3526H396.482Z" fill="white" style="fill:white;fill-opacity:1;"/>
<path d="M493.323 35.3743C499.678 35.3743 504.925 37.437 509.051 41.5623C513.176 45.6618 515.239 50.8828 515.239 57.2383V121.232H415.2V87.3529H501.573V81.7322C501.573 80.6365 501.213 79.7469 500.491 79.0508C499.769 78.3289 498.853 77.9679 497.758 77.9679H423.606V35.3743C425.256 35.3743 427.576 34.9102 430.567 33.982C433.584 33.0539 436.665 31.5327 439.797 29.3927C442.917 27.2269 445.586 24.3134 447.79 20.6264C449.982 16.9523 451.09 12.3759 451.09 6.90985V0H464.394V6.90985C464.394 13.1751 463.26 18.654 460.991 23.3594C458.748 28.0777 455.938 32.0741 452.534 35.3743H493.323Z" fill="white" style="fill:white;fill-opacity:1;"/>
<path d="M531.66 121.232V6.08496H545.273V121.232H531.66Z" fill="white" style="fill:white;fill-opacity:1;"/>
<path d="M154.905 273.043H163.31V306.921H127.936C123.772 306.921 120.278 305.555 117.468 302.796C114.683 300.05 113.291 296.544 113.291 292.277V306.921H86.3217C82.1577 306.921 78.6641 305.555 75.8538 302.796C73.0692 300.05 71.6769 296.544 71.6769 292.277V319.761C71.6769 326.117 69.6143 331.338 65.489 335.438C61.3895 339.563 56.1684 341.625 49.8129 341.625H6.10352e-05V286.347H13.6135V313.161H47.4924C50.5864 313.161 53.1131 312.155 55.0726 310.17C57.0579 308.211 58.0635 305.71 58.0635 302.641V236.534H71.6769V273.043H99.6773V236.534H113.291V273.043H141.291V221.064H154.905V273.043Z" fill="white" style="fill:white;fill-opacity:1;"/>
<path d="M160.794 306.921V273.043H182.658V221.064H196.323V306.921H160.794ZM199.107 325.846L188.433 336.675L179.564 327.806L170.849 336.675L159.968 325.846L170.849 315.172L179.564 323.887L188.433 315.172L199.107 325.846Z" fill="white" style="fill:white;fill-opacity:1;"/>
<path d="M252.557 273.043H260.962V306.921H252.557V319.761C252.557 326.117 250.494 331.338 246.369 335.438C242.27 339.563 237.049 341.625 230.693 341.625H212.284V313.161H228.373C231.467 313.161 233.993 312.155 235.953 310.17C237.912 308.211 238.892 305.71 238.892 302.641V221.064H252.557V273.043Z" fill="white" style="fill:white;fill-opacity:1;"/>
<path d="M303.232 273.043V306.921H257.647V273.043H272.808V221.064H286.421V273.043H303.232ZM268.012 325.846L278.893 315.172L289.567 325.846L278.893 336.675L268.012 325.846Z" fill="white" style="fill:white;fill-opacity:1;"/>
<path d="M405.207 273.043H413.561V306.921H378.238C374.035 306.921 370.555 305.555 367.77 302.796C364.985 300.05 363.593 296.544 363.593 292.277V306.921H336.573C332.409 306.921 328.941 305.555 326.156 302.796C323.372 300.05 321.979 296.544 321.979 292.277V306.921H299.909V273.043H308.314V236.534H321.979V273.043H349.928V236.534H363.593V273.043H391.542V221.064H405.207V273.043Z" fill="white" style="fill:white;fill-opacity:1;"/>
<path d="M488.373 221.064C494.728 221.064 499.975 223.127 504.1 227.252C508.226 231.352 510.288 236.573 510.288 242.928V306.922H410.25V273.043H496.623V267.422C496.623 266.326 496.262 265.437 495.54 264.741C494.818 264.019 493.903 263.658 492.807 263.658H418.655V221.064C420.305 221.064 422.626 220.6 425.617 219.672C428.633 218.744 431.714 217.223 434.847 215.083C437.967 212.917 440.635 210.003 442.84 206.316C445.031 202.642 446.14 198.066 446.14 192.6V185.69H459.444V192.6C459.444 198.865 458.31 204.344 456.041 209.049C453.798 213.768 450.987 217.764 447.584 221.064H488.373Z" fill="white" style="fill:white;fill-opacity:1;"/>
<path d="M521.759 183.524V173.004H524.389V162.64C524.389 160.68 525.008 159.082 526.245 157.844C527.509 156.581 529.146 155.936 531.144 155.936H543.159V169.085H531.299C530.499 169.085 530.113 169.472 530.113 170.22V173.004H545.273V183.524H521.759ZM526.709 306.921V191.774H540.323V306.921H526.709Z" fill="white" style="fill:white;fill-opacity:1;"/>
<mask id="mask0_2181_3514" style="mask-type:luminance" maskUnits="userSpaceOnUse" x="606" y="9" width="54" height="33">
<path d="M606.743 9.92676H659.547V41.3821H606.743V9.92676Z" fill="white" style="fill:white;fill-opacity:1;"/>
</mask>
<g mask="url(#mask0_2181_3514)">
<path d="M654.48 18.0226C653.449 18.0226 651.283 17.7003 648.421 15.1478C646.449 15.1478 644.464 15.1478 642.491 15.1478C642.298 16.4241 641.795 17.0686 640.519 17.7003C640.906 19.995 641.215 22.5475 641.602 25.4739C648.293 28.4132 648.293 35.9934 643.071 38.1592C641.537 38.7908 635.414 39.9382 632.745 34.021C629.174 34.021 625.603 34.021 622.161 34.021C617.508 40.3894 609.992 39.6288 609.038 35.4133C607.826 29.9344 616.876 22.8054 621.401 25.6028C622.922 26.5568 623.244 28.1553 623.373 28.9804C626.557 28.9804 629.742 28.9804 633.068 28.9804C634.086 27.1369 635.104 26.1829 636.948 25.4095C636.948 22.5475 636.948 19.9306 636.884 17.6359C632.423 15.5345 634.524 11.3964 636.755 10.494C637.593 10.1201 639.372 9.92673 641.408 12.2859C643.071 12.2859 644.722 12.2859 646.32 12.2859C645.74 10.6873 646.062 10.3779 647.016 10.249C649.827 10.494 653.578 12.6597 655.177 14.3872C657.02 16.3596 656.646 17.9582 654.48 18.0226Z" fill="#20B663" style="fill:#20B663;fill:color(display-p3 0.1255 0.7137 0.3882);fill-opacity:1;"/>
</g>
<mask id="mask1_2181_3514" style="mask-type:luminance" maskUnits="userSpaceOnUse" x="652" y="9" width="41" height="33">
<path d="M652.946 9.92676H692.549V41.3821H652.946V9.92676Z" fill="white" style="fill:white;fill-opacity:1;"/>
</mask>
<g mask="url(#mask1_2181_3514)">
<path d="M689.533 38.6104C688.888 38.7908 685.253 39.5643 679.013 34.021C676.009 34.021 672.89 34.021 669.705 34.021C670.221 39.9382 663.646 39.7577 659.379 36.5606C654.029 32.5513 653.9 26.1185 657.858 25.1516C658.748 24.9711 662.061 24.5844 666.843 29.0449C669.77 29.0449 672.58 29.0449 675.313 29.0449C674.553 27.1369 674.553 26.2345 675.313 25.4739C672.58 22.612 669.705 19.995 666.715 17.7003C661.042 15.8568 655.37 11.3964 654.854 10.5584C655.112 10.4295 656.002 9.92673 662.19 12.3503C663.466 12.3503 664.729 12.3503 665.941 12.3503C662.886 10.9452 662.499 10.7518 662.061 10.4295C662.125 10.3779 662.19 10.3779 662.19 10.3135C664.484 10.5584 670.917 12.2859 675.893 14.4517C679.967 16.2307 680.728 17.2491 681.05 17.6359C681.05 17.7003 680.985 17.8292 680.985 17.8937C679.903 18.1515 678.188 17.7648 672.065 15.0833C670.595 15.0833 669.138 15.0833 667.54 15.0833C669.203 16.2951 669.705 17.0042 669.512 17.6359C672.761 19.9305 675.893 22.4831 678.884 25.4094C688.256 28.787 693.993 37.1407 689.533 38.6104Z" fill="#20B663" style="fill:#20B663;fill:color(display-p3 0.1255 0.7137 0.3882);fill-opacity:1;"/>
</g>
<path d="M713.291 34.0204H707.181C710.816 38.2875 708.767 38.7258 707.684 38.7258C702.334 38.7258 687.869 26.9429 691.054 25.151C691.118 25.0866 692.962 24.1326 700.993 29.0443H706.536C704.19 27.0718 703.288 26.1823 702.978 25.4733C706.73 25.2799 724.133 36.0572 723.308 38.6098C722.225 38.9192 720.24 38.5453 713.291 34.0204Z" fill="#20B663" style="fill:#20B663;fill:color(display-p3 0.1255 0.7137 0.3882);fill-opacity:1;"/>
<path d="M613.756 88.8226C619.235 88.8226 624.778 88.8226 630.386 88.8226C631.972 85.5739 633.764 83.9753 637.141 82.5186C637.141 77.2846 637.141 72.257 637.141 67.4742C627.138 62.9493 630.644 52.4943 636.819 50.0707C637.593 49.7613 644.722 47.2087 649.44 55.0468C653.965 55.0468 658.361 55.0468 662.692 55.0468C663.646 51.2825 665.503 49.6968 669.254 49.3745C678.124 50.264 681.05 58.231 681.372 60.3323C682.455 67.7965 673.973 70.8518 667.217 65.4373C665.696 64.2255 664.794 62.8848 664.098 61.8664C659.508 61.8664 654.854 61.8664 650.136 61.8664C649.118 64.6639 647.661 66.1335 644.786 67.4742C645.044 72.257 645.237 77.2846 645.495 82.5186C656.956 87.7397 654.597 100.36 646.514 103.738C646.385 103.803 635.414 108.005 630.193 97.1118C624.392 97.1118 618.655 97.1118 612.983 97.1118C606.614 108.392 593.671 105.582 591.699 97.4212C589.275 87.7397 600.426 78.3675 608.973 82.828C612.093 84.5555 613.241 87.4174 613.756 88.8226Z" fill="#20B663" style="fill:#20B663;fill:color(display-p3 0.1255 0.7137 0.3882);fill-opacity:1;"/>
<path d="M728.981 68.0414C726.299 67.5387 723.244 65.4373 719.866 61.8664C716.489 61.8664 712.918 61.8664 709.218 61.8664C709.669 64.6639 709.153 66.1335 707.374 67.4742C709.54 72.257 711.577 77.2846 713.421 82.5186C725.474 88.3069 725.848 102.462 718.526 104.434C717.314 104.756 711.061 105.904 705.338 97.1118C700.49 97.1118 695.45 97.1118 690.293 97.1118C687.354 108.456 673.973 105.582 669.705 97.4212C665.052 88.6936 671.742 79.4504 680.728 82.2608C685.253 83.666 687.547 87.1724 688.63 88.8226C693.606 88.8226 698.518 88.8226 703.223 88.8226C703.61 85.5739 704.564 83.9109 706.794 82.5186C705.08 77.2846 703.223 72.257 701.251 67.4742C690.1 62.4336 688.824 50.9731 693.864 49.5679C695.011 49.2456 699.15 48.6784 705.389 55.0468C708.896 55.0468 712.273 55.0468 715.47 55.0468C714.194 51.218 714.632 49.6968 717.185 49.3745C724.262 50.3285 730.18 58.231 731.391 60.3323C734.331 65.3729 733.248 68.8794 728.981 68.0414Z" fill="#20B663" style="fill:#20B663;fill:color(display-p3 0.1255 0.7137 0.3882);fill-opacity:1;"/>
<path d="M769.821 104.692C768.493 104.756 765.554 103.867 760.9 97.1763C757.845 97.1763 754.532 97.1763 751.025 97.1763C751.915 106.664 745.095 105.453 741.215 102.655C733.505 97.1118 730.128 83.9753 735.916 82.0029C737.064 81.6162 741.343 80.9201 747.454 88.8226C750.896 88.8226 754.08 88.8226 757.02 88.8226C756.182 85.5739 756.182 83.9109 757.02 82.5186C754.08 77.2846 750.896 72.257 747.454 67.4742C738.984 62.7559 731.211 51.0375 733.377 49.5679C733.686 49.3101 735.852 48.485 743.316 55.0468C745.224 55.0468 746.951 55.0468 748.408 55.0468C745.288 51.218 744.786 50.1351 744.902 49.5034C744.966 49.5034 745.095 49.439 745.159 49.3745C748.279 50.1996 755.163 56.9547 758.167 60.3323C762.937 65.8112 763.001 67.4097 763.001 67.977C762.241 68.3637 760.771 67.9254 754.66 61.9309C753.126 61.9309 751.283 61.9309 749.31 61.9309C751.025 64.7283 751.476 66.1979 751.089 67.5387C754.596 72.3214 757.909 77.3491 760.964 82.5831C770.465 88.5647 775.558 104.434 769.821 104.692Z" fill="#20B663" style="fill:#20B663;fill:color(display-p3 0.1255 0.7137 0.3882);fill-opacity:1;"/>
<path d="M603.559 165.811C607.568 167.913 609.167 171.548 609.927 173.263C616.296 173.263 622.742 173.263 629.303 173.263C631.082 169.253 633.119 167.152 637.141 165.36C637.141 158.734 637.141 152.236 637.141 145.804C624.456 139.809 627.511 125.409 636.755 121.645C637.206 121.452 648.099 117.184 654.029 128.787C660.204 128.787 666.263 128.787 672.193 128.787C674.359 123.359 677.35 121.129 682.893 120.626C696.726 122.096 696.03 135.98 696.03 136.109C694.947 147.067 681.875 150.445 674.81 141.653C674.037 140.699 673.341 139.293 672.761 138.275C666.715 138.275 660.591 138.275 654.352 138.275C652.689 142.104 650.781 144.076 646.952 145.804C647.016 152.172 647.081 158.734 647.081 165.36C660.088 171.741 656.891 187.16 647.403 191.233C647.274 191.298 635.349 196.209 629.303 183.46C622.742 183.46 616.231 183.46 609.927 183.46C603.997 196.661 589.726 193.399 585.962 183.846C581.244 171.857 592.782 160.075 603.559 165.811Z" fill="#20B663" style="fill:#20B663;fill:color(display-p3 0.1255 0.7137 0.3882);fill-opacity:1;"/>
<path d="M673.844 183.846C669.641 172.824 679.077 161.415 689.339 165.051C694.431 166.83 696.288 171.161 697.177 173.263C702.978 173.263 708.651 173.263 714.194 173.263C715.651 169.253 717.314 167.152 720.498 165.36C720.305 158.734 719.931 152.236 719.351 145.804C707.245 139.113 709.411 123.05 717.816 120.884C719.608 120.433 725.848 119.608 730.888 128.787C735.736 128.787 740.325 128.787 744.721 128.787C745.482 123.359 747.325 121.129 751.218 120.626C761.416 122.096 762.692 135.98 762.692 136.109C763.195 145.481 756.762 149.813 750.574 144.334C748.344 142.362 747.325 140.247 746.371 138.275C741.911 138.275 737.192 138.275 732.294 138.275C731.456 142.104 730.128 144.076 727.189 145.804C727.833 152.172 728.272 158.734 728.465 165.36C740.067 172.373 735.22 189.841 726.492 192.071C724.52 192.574 717.816 193.399 714.129 183.524C708.651 183.524 702.978 183.524 697.177 183.524C691.376 196.661 677.479 193.399 673.844 183.846Z" fill="#20B663" style="fill:#20B663;fill:color(display-p3 0.1255 0.7137 0.3882);fill-opacity:1;"/>
<mask id="mask2_2181_3514" style="mask-type:luminance" maskUnits="userSpaceOnUse" x="745" y="120" width="55" height="74">
<path d="M745.353 120.588H800V193.193H745.353V120.588Z" fill="white" style="fill:white;fill-opacity:1;"/>
</mask>
<g mask="url(#mask2_2181_3514)">
<path d="M797.035 146.5C795.694 145.868 794.173 143.058 792.381 138.211C790.344 138.211 787.985 138.211 785.316 138.211C785.381 142.04 784.865 144.012 783.396 145.739C784.414 152.108 785.123 158.67 785.51 165.296C792.832 172.825 789.519 192.136 782.828 192.252C780.985 192.317 778.497 190.795 776.963 183.396C773.521 183.396 769.756 183.396 765.811 183.396C761.738 195.759 753.191 193.851 749.878 186.206C745.224 175.364 752.237 161.093 760.204 165.051C763.839 166.83 765.18 171.162 765.811 173.263C769.756 173.263 773.521 173.263 776.963 173.263C777.852 169.254 778.806 167.152 780.663 165.36C780.276 158.734 779.644 152.237 778.626 145.804C770.272 138.855 769.189 120.82 775.313 120.627C776.705 120.562 779.644 121.581 783.022 128.787C785.626 128.787 787.985 128.787 789.97 128.787C789.326 123.36 789.583 121.13 791.053 120.627C795.385 122.161 798.311 135.981 798.311 136.109C799.781 142.994 799.201 147.583 797.035 146.5Z" fill="#20B663" style="fill:#20B663;fill:color(display-p3 0.1255 0.7137 0.3882);fill-opacity:1;"/>
</g>
<path d="M607.065 252.545C610.817 254.324 612.544 257.328 613.305 258.733C618.848 258.733 624.52 258.733 630.257 258.733C631.791 255.407 633.57 253.692 637.141 252.094C637.141 246.486 637.141 240.633 637.141 234.703C624.52 228.902 627.64 214.631 636.819 210.802C636.948 210.738 648.744 206.019 654.223 218.137C660.462 218.137 666.586 218.137 672.58 218.137C675.378 212.646 678.884 210.235 684.685 209.719C696.597 211.06 696.223 221.76 695.14 225.395C691.763 236.804 677.479 239.228 672.696 229.16C672.451 228.644 672.258 227.948 672 227.432C666.07 227.432 660.088 227.432 653.965 227.432C652.186 231.068 650.2 232.976 646.513 234.574C646.385 240.569 646.191 246.37 646.062 251.978C656.956 257.134 653.771 269.562 645.547 272.875C645.173 273.004 635.736 276.639 630.515 266.751C624.972 266.751 619.493 266.751 614.13 266.751C609.734 278.354 596.353 273.958 592.91 264.972C589.275 255.665 597.758 248.149 607.065 252.545Z" fill="#20B663" style="fill:#20B663;fill:color(display-p3 0.1255 0.7137 0.3882);fill-opacity:1;"/>
<path d="M710.43 273.635C708.264 274.151 703.043 274.408 702.076 266.944C697.435 266.944 692.652 266.944 687.741 266.944C680.663 277.464 670.092 274.782 668.055 267.266C665.309 257.392 676.783 247.633 685.317 252.609C688.385 254.388 689.146 257.392 689.532 258.784C694.625 258.784 699.536 258.784 704.371 258.784C706.536 255.471 708.457 253.692 711.77 252.158C713.175 246.55 714.439 240.697 715.522 234.767C705.337 228.321 712.093 212.142 720.756 210.105C722.793 209.59 729.483 208.765 731.649 218.253C736.496 218.253 741.15 218.253 745.611 218.253C748.408 212.774 751.218 210.35 755.357 209.848C763.904 211.188 761.673 222.597 760.655 225.524C757.213 235.076 748.472 238.841 745.03 232.214C744.205 230.68 744.012 228.901 743.819 227.561C739.423 227.561 734.833 227.561 730.063 227.561C728.078 231.196 726.235 233.104 722.986 234.702C721.774 240.697 720.433 246.485 718.848 252.093C727.124 257.959 718.848 271.791 710.43 273.635Z" fill="#20B663" style="fill:#20B663;fill:color(display-p3 0.1255 0.7137 0.3882);fill-opacity:1;"/>
<mask id="mask3_2181_3514" style="mask-type:luminance" maskUnits="userSpaceOnUse" x="728" y="209" width="72" height="67">
<path d="M728.852 209.694H800V275.698H728.852V209.694Z" fill="white" style="fill:white;fill-opacity:1;"/>
</mask>
<g mask="url(#mask3_2181_3514)">
<path d="M755.743 273.765C753.513 272.876 754.725 268.415 755.163 266.946C752.237 266.946 749.117 266.946 745.74 266.946C738.662 275.867 731.842 275.622 731.52 269.111C730.953 259.365 743.187 247.26 748.279 252.546C750.007 254.325 749.62 257.329 749.491 258.734C752.933 258.734 756.246 258.734 759.25 258.734C761.609 255.356 763.324 253.629 765.747 252.095C768.171 246.487 770.337 240.634 772.18 234.704C767.023 227.884 774.475 209.849 780.598 209.785C782.119 209.785 784.607 210.803 784.414 218.19C787.031 218.19 789.39 218.19 791.427 218.19C793.593 212.647 795.127 210.287 796.841 209.785C799.974 211.125 796.841 222.534 795.888 225.461C793.722 231.894 790.28 237.373 788.887 234.962C787.985 233.428 788.565 229.418 788.887 227.498C786.838 227.498 784.543 227.498 781.939 227.498C780.147 231.133 778.742 233.041 776.512 234.64C774.604 240.634 772.373 246.422 769.821 252.03C773.521 259.172 760.397 275.557 755.743 273.765Z" fill="#20B663" style="fill:#20B663;fill:color(display-p3 0.1255 0.7137 0.3882);fill-opacity:1;"/>
</g>
<mask id="mask4_2181_3514" style="mask-type:luminance" maskUnits="userSpaceOnUse" x="610" y="285" width="73" height="47">
<path d="M610.043 285.599H682.648V331.699H610.043V285.599Z" fill="white" style="fill:white;fill-opacity:1;"/>
</mask>
<g mask="url(#mask4_2181_3514)">
<path d="M615.858 315.894C618.462 316.28 620.756 317.802 622.677 320.354C625.99 320.354 629.368 320.354 632.874 320.354C633.699 318.317 634.782 317.299 637.013 316.28C637.013 312.774 637.013 308.945 637.077 304.936C628.478 301.043 629.497 290.91 636.819 287.983C639.243 287.017 646.887 285.882 649.827 293.333C654.481 293.333 659.005 293.333 663.466 293.333C666.199 289.311 669.203 287.532 673.663 287.21C682.648 288.164 680.418 295.95 678.884 298.554C674.746 305.89 664.613 308.558 662.254 301.171C662.125 300.849 662.061 300.346 661.996 299.96C657.794 299.96 653.449 299.96 649.118 299.96C647.661 302.512 646.191 303.788 643.574 304.871C643.252 308.945 643.007 312.709 642.685 316.216C649.375 319.465 646.127 326.594 641.537 328.385C640.712 328.708 636.252 330.1 633.313 325.008C630.193 325.008 627.138 325.008 624.069 325.008C622.871 331.699 614.968 328.385 611.771 323.989C608.019 319.078 610.946 315.133 615.858 315.894Z" fill="#20B663" style="fill:#20B663;fill:color(display-p3 0.1255 0.7137 0.3882);fill-opacity:1;"/>
</g>
<mask id="mask5_2181_3514" style="mask-type:luminance" maskUnits="userSpaceOnUse" x="652" y="285" width="81" height="47">
<path d="M652.946 285.599H732.152V331.699H652.946V285.599Z" fill="white" style="fill:white;fill-opacity:1;"/>
</mask>
<g mask="url(#mask5_2181_3514)">
<path d="M667.733 317.105C668.622 318.188 668.494 319.271 668.365 320.354C671.433 320.354 674.359 320.354 677.286 320.354C679.58 318.317 681.308 317.234 683.796 316.28C686.335 312.774 688.823 308.945 691.183 304.936C685.059 299.96 695.192 287.274 703.094 287.21C705.08 287.21 708.264 287.983 707.439 293.333C711.061 293.333 714.503 293.333 717.817 293.333C721.774 289.311 724.765 287.532 728.078 287.21C733.75 288.112 729.226 295.241 726.17 298.554C720.562 304.614 712.531 308.056 712.531 303.208C712.531 302.19 712.982 300.914 713.292 300.024C710.172 300.024 706.859 300.024 703.481 300.024C700.993 302.577 699.15 303.853 696.339 304.936C693.8 309.01 691.054 312.774 688.256 316.28C691.698 320.096 679.516 328.888 674.617 328.888C671.807 328.888 673.083 326.155 673.534 325.072C670.917 325.072 668.236 325.072 665.438 325.072C659.315 330.616 654.352 329.662 654.287 325.266C654.223 318.382 664.549 313.341 667.733 317.105Z" fill="#20B663" style="fill:#20B663;fill:color(display-p3 0.1255 0.7137 0.3882);fill-opacity:1;"/>
</g>
<mask id="mask6_2181_3514" style="mask-type:luminance" maskUnits="userSpaceOnUse" x="685" y="285" width="77" height="47">
<path d="M685.949 285.599H761.854V331.699H685.949V285.599Z" fill="white" style="fill:white;fill-opacity:1;"/>
</mask>
<g mask="url(#mask6_2181_3514)">
<path d="M706.536 316.526C706.859 317.609 705.144 319.53 704.371 320.355C706.472 320.355 708.393 320.355 710.236 320.355C713.549 318.253 715.47 317.235 717.636 316.281C722.032 312.775 726.299 308.946 730.308 304.937C729.741 299.509 745.933 284.155 748.472 287.662C749.426 288.938 747.454 292.058 746.629 293.334C748.601 293.334 750.329 293.334 751.85 293.334C756.246 289.196 758.412 287.533 759.946 287.211C760.075 287.275 760.204 287.34 760.333 287.404C760.204 290.459 751.915 298.246 751.605 298.555C750.896 299.2 744.902 304.743 742.04 305.504C741.975 305.375 741.846 305.246 741.782 305.117C742.169 304.163 742.736 303.209 745.546 300.025C744.076 300.025 742.491 300.025 740.57 300.025C737.644 302.513 735.8 303.789 733.376 304.937C729.161 309.01 724.829 312.775 720.24 316.281C719.028 319.968 701.766 330.23 699.536 328.644C700.232 327.626 700.361 327.432 703.352 325.073C701.702 325.073 699.91 325.073 698.067 325.073C691.763 328.709 687.483 329.907 688.063 327.871C689.21 324.055 705.389 312.259 706.536 316.526Z" fill="#20B663" style="fill:#20B663;fill:color(display-p3 0.1255 0.7137 0.3882);fill-opacity:1;"/>
</g>
</svg>
