<svg width="24" height="24" viewBox="0 0 24 24" fill="none" xmlns="http://www.w3.org/2000/svg">
<path opacity="0.2" d="M16.5 6.75C16.5 7.64002 16.2361 8.51005 15.7416 9.25007C15.2471 9.99009 14.5443 10.5669 13.7221 10.9075C12.8998 11.2481 11.995 11.3372 11.1221 11.1635C10.2492 10.9899 9.44736 10.5613 8.81802 9.93198C8.18869 9.30264 7.7601 8.50082 7.58647 7.62791C7.41283 6.75499 7.50195 5.85019 7.84254 5.02792C8.18314 4.20566 8.75991 3.50285 9.49994 3.00839C10.24 2.51392 11.11 2.25 12 2.25C13.1935 2.25 14.3381 2.72411 15.182 3.56802C16.0259 4.41193 16.5 5.55653 16.5 6.75Z" fill="black" style="fill:black;fill-opacity:1;"/>
<path d="M17.25 6.75001C17.2501 5.74366 16.961 4.75849 16.417 3.91181C15.8731 3.06513 15.0973 2.39263 14.1819 1.97438C13.2666 1.55613 12.2504 1.40977 11.2542 1.55272C10.2581 1.69567 9.32403 2.12191 8.56327 2.78068C7.80251 3.43946 7.24711 4.303 6.96322 5.26847C6.67934 6.23395 6.67892 7.26068 6.96202 8.22638C7.24512 9.19209 7.79981 10.0561 8.56003 10.7155C9.32025 11.3749 10.254 11.8019 11.25 11.9456V21.75C11.25 21.9489 11.329 22.1397 11.4697 22.2803C11.6103 22.421 11.8011 22.5 12 22.5C12.1989 22.5 12.3897 22.421 12.5303 22.2803C12.671 22.1397 12.75 21.9489 12.75 21.75V11.9456C13.9987 11.7636 15.1403 11.1387 15.9664 10.1848C16.7925 9.23099 17.2481 8.01188 17.25 6.75001ZM12 10.5C11.2583 10.5 10.5333 10.2801 9.91661 9.86802C9.29993 9.45597 8.81928 8.8703 8.53545 8.18507C8.25162 7.49985 8.17736 6.74585 8.32205 6.01842C8.46675 5.29099 8.8239 4.62281 9.34835 4.09836C9.8728 3.57391 10.541 3.21676 11.2684 3.07207C11.9958 2.92737 12.7498 3.00163 13.4351 3.28546C14.1203 3.56929 14.706 4.04994 15.118 4.66662C15.5301 5.28331 15.75 6.00833 15.75 6.75001C15.75 7.24247 15.653 7.7301 15.4645 8.18507C15.2761 8.64005 14.9999 9.05344 14.6517 9.40166C14.3034 9.74988 13.89 10.0261 13.4351 10.2146C12.9801 10.403 12.4925 10.5 12 10.5Z" fill="black" style="fill:black;fill-opacity:1;"/>
</svg>
