<svg width="20" height="21" viewBox="0 0 20 21" fill="none" xmlns="http://www.w3.org/2000/svg">
<path d="M19.3984 4.91281L18.9616 4.66063C19.0128 4.38927 19.0128 4.11073 18.9616 3.83938L19.3984 3.58719C19.5707 3.48773 19.6965 3.3239 19.748 3.13173C19.7995 2.93957 19.7726 2.73481 19.6731 2.5625C19.5737 2.39019 19.4098 2.26445 19.2177 2.21294C19.0255 2.16142 18.8207 2.18836 18.6484 2.28781L18.2106 2.54094C18.0011 2.36118 17.7602 2.22165 17.5 2.12938V1.625C17.5 1.42609 17.421 1.23532 17.2803 1.09467C17.1397 0.954018 16.9489 0.875 16.75 0.875C16.5511 0.875 16.3603 0.954018 16.2197 1.09467C16.079 1.23532 16 1.42609 16 1.625V2.12938C15.7398 2.22165 15.4989 2.36118 15.2894 2.54094L14.8516 2.28781C14.7662 2.23857 14.6721 2.20661 14.5744 2.19376C14.4767 2.18091 14.3775 2.18743 14.2823 2.21294C14.1872 2.23844 14.098 2.28244 14.0198 2.34242C13.9417 2.4024 13.8761 2.47718 13.8269 2.5625C13.7776 2.64782 13.7457 2.742 13.7328 2.83967C13.72 2.93734 13.7265 3.03658 13.752 3.13173C13.7775 3.22688 13.8215 3.31608 13.8815 3.39423C13.9415 3.47237 14.0162 3.53794 14.1016 3.58719L14.5384 3.83938C14.4872 4.11073 14.4872 4.38927 14.5384 4.66063L14.1016 4.91281C13.9585 4.99533 13.8467 5.12275 13.7834 5.27532C13.7202 5.42789 13.7091 5.59706 13.7518 5.75659C13.7946 5.91612 13.8888 6.05708 14.0198 6.1576C14.1508 6.25811 14.3114 6.31256 14.4766 6.3125C14.6082 6.31291 14.7377 6.27829 14.8516 6.21219L15.2894 5.95906C15.4989 6.13882 15.7398 6.27835 16 6.37063V6.875C16 7.07391 16.079 7.26468 16.2197 7.40533C16.3603 7.54598 16.5511 7.625 16.75 7.625C16.9489 7.625 17.1397 7.54598 17.2803 7.40533C17.421 7.26468 17.5 7.07391 17.5 6.875V6.37063C17.7602 6.27835 18.0011 6.13882 18.2106 5.95906L18.6484 6.21219C18.7623 6.27829 18.8917 6.31291 19.0234 6.3125C19.1886 6.31256 19.3491 6.25811 19.4802 6.1576C19.6112 6.05708 19.7054 5.91612 19.7482 5.75659C19.7909 5.59706 19.7798 5.42789 19.7166 5.27532C19.6533 5.12275 19.5415 4.99533 19.3984 4.91281ZM16 4.25C16 4.10166 16.044 3.95666 16.1264 3.83332C16.2088 3.70999 16.3259 3.61386 16.463 3.55709C16.6 3.50032 16.7508 3.48547 16.8963 3.51441C17.0418 3.54335 17.1754 3.61478 17.2803 3.71967C17.3852 3.82456 17.4566 3.9582 17.4856 4.10368C17.5145 4.24917 17.4997 4.39997 17.4429 4.53701C17.3861 4.67406 17.29 4.79119 17.1667 4.8736C17.0433 4.95601 16.8983 5 16.75 5C16.5511 5 16.3603 4.92098 16.2197 4.78033C16.079 4.63968 16 4.44891 16 4.25ZM18.7516 8.76031C18.5554 8.79314 18.3803 8.90255 18.2648 9.06448C18.1493 9.2264 18.1028 9.42757 18.1356 9.62375C18.2118 10.0785 18.25 10.5389 18.25 11C18.2518 13.0196 17.5095 14.969 16.165 16.4759C15.3285 15.2638 14.1524 14.3261 12.7844 13.7806C13.5192 13.2019 14.0554 12.4085 14.3184 11.5108C14.5814 10.6132 14.5582 9.6559 14.2519 8.77207C13.9457 7.88825 13.3716 7.12183 12.6096 6.5794C11.8475 6.03696 10.9354 5.74548 9.99999 5.74548C9.06461 5.74548 8.15247 6.03696 7.39043 6.5794C6.62838 7.12183 6.05431 7.88825 5.74804 8.77207C5.44178 9.6559 5.41854 10.6132 5.68156 11.5108C5.94458 12.4085 6.48079 13.2019 7.21562 13.7806C5.84764 14.3261 4.67146 15.2638 3.83499 16.4759C2.78004 15.2872 2.09094 13.8189 1.85053 12.2479C1.61013 10.6768 1.82867 9.06966 2.47987 7.61981C3.13107 6.16996 4.18721 4.93908 5.52129 4.07516C6.85538 3.21125 8.41061 2.75108 9.99999 2.75C10.4611 2.74993 10.9215 2.78818 11.3762 2.86438C11.5715 2.89519 11.7711 2.84764 11.9315 2.73208C12.0919 2.61652 12.2002 2.44229 12.2329 2.2473C12.2655 2.0523 12.2198 1.85231 12.1057 1.69082C11.9916 1.52934 11.8184 1.41943 11.6237 1.385C9.58697 1.04236 7.494 1.35588 5.64703 2.28029C3.80005 3.2047 2.29465 4.69217 1.34817 6.52793C0.401686 8.3637 0.0631075 10.4528 0.381316 12.4935C0.699524 14.5342 1.65805 16.421 3.11851 17.8815C4.57896 19.3419 6.46577 20.3005 8.5065 20.6187C10.5472 20.9369 12.6363 20.5983 14.4721 19.6518C16.3078 18.7053 17.7953 17.1999 18.7197 15.353C19.6441 13.506 19.9576 11.413 19.615 9.37625C19.5822 9.18008 19.4728 9.00498 19.3108 8.88947C19.1489 8.77396 18.9477 8.7275 18.7516 8.76031ZM6.99999 10.25C6.99999 9.65666 7.17594 9.07664 7.50559 8.58329C7.83523 8.08994 8.30377 7.70542 8.85194 7.47836C9.40012 7.2513 10.0033 7.19189 10.5853 7.30764C11.1672 7.4234 11.7018 7.70912 12.1213 8.12868C12.5409 8.54824 12.8266 9.08279 12.9423 9.66473C13.0581 10.2467 12.9987 10.8499 12.7716 11.3981C12.5446 11.9462 12.1601 12.4148 11.6667 12.7444C11.1734 13.0741 10.5933 13.25 9.99999 13.25C9.20434 13.25 8.44128 12.9339 7.87867 12.3713C7.31606 11.8087 6.99999 11.0457 6.99999 10.25ZM4.94499 17.5156C5.48756 16.6671 6.235 15.9688 7.11842 15.4851C8.00184 15.0013 8.99282 14.7478 9.99999 14.7478C11.0072 14.7478 11.9981 15.0013 12.8816 15.4851C13.765 15.9688 14.5124 16.6671 15.055 17.5156C13.6097 18.6397 11.831 19.2499 9.99999 19.2499C8.16903 19.2499 6.3903 18.6397 4.94499 17.5156Z" fill="black" style="fill:black;fill-opacity:1;"/>
</svg>
