<svg width="20" height="22" viewBox="0 0 20 22" fill="none" xmlns="http://www.w3.org/2000/svg">
<path d="M18.97 5.20155L10.72 0.687486C10.4996 0.565688 10.2518 0.501801 10 0.501801C9.74816 0.501801 9.50043 0.565688 9.28 0.687486L1.03 5.20342C0.794395 5.33233 0.597722 5.52214 0.460517 5.75301C0.323313 5.98388 0.25061 6.24736 0.25 6.51592V15.4822C0.25061 15.7507 0.323313 16.0142 0.460517 16.2451C0.597722 16.476 0.794395 16.6658 1.03 16.7947L9.28 21.3106C9.50043 21.4324 9.74816 21.4963 10 21.4963C10.2518 21.4963 10.4996 21.4324 10.72 21.3106L18.97 16.7947C19.2056 16.6658 19.4023 16.476 19.5395 16.2451C19.6767 16.0142 19.7494 15.7507 19.75 15.4822V6.51686C19.7499 6.24782 19.6774 5.98376 19.5402 5.75234C19.403 5.52093 19.206 5.33069 18.97 5.20155ZM10 1.99999L17.5319 6.12499L14.7409 7.65311L7.20813 3.52811L10 1.99999ZM10 10.25L2.46812 6.12499L5.64625 4.38499L13.1781 8.50999L10 10.25ZM1.75 7.43749L9.25 11.5419V19.5847L1.75 15.4831V7.43749ZM18.25 15.4794L10.75 19.5847V11.5456L13.75 9.90405V13.25C13.75 13.4489 13.829 13.6397 13.9697 13.7803C14.1103 13.921 14.3011 14 14.5 14C14.6989 14 14.8897 13.921 15.0303 13.7803C15.171 13.6397 15.25 13.4489 15.25 13.25V9.0828L18.25 7.43749V15.4784V15.4794Z" fill="black" style="fill:black;fill-opacity:1;"/>
</svg>
