<svg width="20" height="20" viewBox="0 0 20 20" fill="none" xmlns="http://www.w3.org/2000/svg">
<path d="M10 0.25C9.8011 0.25 9.61034 0.329018 9.46968 0.46967C9.32903 0.610322 9.25002 0.801088 9.25002 1V6.25C9.25002 6.44891 9.32903 6.63968 9.46968 6.78033C9.61034 6.92098 9.8011 7 10 7C10.6604 7.00015 11.3023 7.21819 11.8261 7.6203C12.3499 8.02241 12.7264 8.58613 12.8972 9.22403C13.0681 9.86193 13.0236 10.5384 12.7708 11.1484C12.518 11.7585 12.071 12.2681 11.499 12.5982C10.9271 12.9284 10.2622 13.0606 9.60751 12.9743C8.9528 12.8881 8.34483 12.5882 7.8779 12.1212C7.41097 11.6542 7.11117 11.0462 7.025 10.3915C6.93882 9.73677 7.07108 9.0719 7.40126 8.5C7.45053 8.41469 7.4825 8.3205 7.49536 8.22283C7.50822 8.12516 7.50171 8.02591 7.4762 7.93075C7.45069 7.83559 7.40668 7.7464 7.3467 7.66825C7.28671 7.59011 7.21191 7.52454 7.12658 7.47531L2.5797 4.85031C2.49439 4.80105 2.40021 4.76907 2.30253 4.75622C2.20486 4.74336 2.10561 4.74987 2.01045 4.77538C1.9153 4.80089 1.8261 4.84489 1.74795 4.90488C1.66981 4.96487 1.60425 5.03967 1.55501 5.125C0.481887 6.98371 0.0520464 9.14458 0.332155 11.2725C0.612263 13.4004 1.58667 15.3764 3.10425 16.8941C4.62183 18.4118 6.59779 19.3863 8.72567 19.6665C10.8535 19.9468 13.0144 19.5171 14.8732 18.4441C16.732 17.3711 18.1848 15.7147 19.0063 13.7319C19.8278 11.7491 19.9721 9.5506 19.4168 7.47742C18.8615 5.40424 17.6376 3.57222 15.9351 2.26547C14.2325 0.958723 12.1463 0.250276 10 0.25ZM2.50845 6.54062L5.78126 8.43062C5.59503 8.93289 5.49979 9.46432 5.50001 10C5.50001 10.1434 5.50751 10.2812 5.52064 10.4237L1.87001 11.4062C1.58532 9.75714 1.80795 8.06046 2.50845 6.54062ZM2.25814 12.8509L5.91439 11.8722C6.22008 12.5385 6.68361 13.1203 7.26485 13.5671C7.84608 14.0139 8.52748 14.3122 9.25002 14.4363V18.2153C7.69735 18.0714 6.21703 17.4914 4.97988 16.5422C3.74273 15.593 2.79919 14.3134 2.25814 12.8509ZM10.75 18.2153V14.4363C11.7982 14.2586 12.7496 13.7156 13.4356 12.9035C14.1216 12.0914 14.498 11.0626 14.498 9.99953C14.498 8.93644 14.1216 7.90768 13.4356 7.09557C12.7496 6.28347 11.7982 5.74047 10.75 5.56281V1.78375C12.7996 1.97101 14.7051 2.91756 16.0926 4.43761C17.4801 5.95767 18.2494 7.94144 18.2494 9.99953C18.2494 12.0576 17.4801 14.0414 16.0926 15.5614C14.7051 17.0815 12.7996 18.0281 10.75 18.2153Z" fill="black" style="fill:black;fill-opacity:1;"/>
</svg>
