<svg width="20" height="20" viewBox="0 0 20 20" fill="none" xmlns="http://www.w3.org/2000/svg">
<path d="M10 0.25C8.07163 0.25 6.18657 0.821828 4.58319 1.89317C2.97981 2.96451 1.73013 4.48726 0.992171 6.26884C0.254217 8.05042 0.0611344 10.0108 0.43734 11.9021C0.813546 13.7934 1.74214 15.5307 3.10571 16.8943C4.46927 18.2579 6.20655 19.1865 8.09787 19.5627C9.98918 19.9389 11.9496 19.7458 13.7312 19.0078C15.5127 18.2699 17.0355 17.0202 18.1068 15.4168C19.1782 13.8134 19.75 11.9284 19.75 10C19.7473 7.41498 18.7192 4.93661 16.8913 3.10872C15.0634 1.28084 12.585 0.25273 10 0.25ZM10 18.25C8.3683 18.25 6.77325 17.7661 5.41654 16.8596C4.05984 15.9531 3.00241 14.6646 2.37799 13.1571C1.75357 11.6496 1.59019 9.99085 1.90852 8.3905C2.22685 6.79016 3.01258 5.32015 4.16637 4.16637C5.32015 3.01259 6.79016 2.22685 8.3905 1.90852C9.99084 1.59019 11.6496 1.75357 13.1571 2.37799C14.6646 3.00242 15.9531 4.05984 16.8596 5.41655C17.7661 6.77325 18.25 8.3683 18.25 10C18.2475 12.1873 17.3775 14.2843 15.8309 15.8309C14.2843 17.3775 12.1873 18.2475 10 18.25ZM14.5225 9.36438L8.5225 5.61438C8.40899 5.54344 8.27858 5.50416 8.14478 5.50063C8.01098 5.4971 7.87867 5.52945 7.76158 5.5943C7.6445 5.65916 7.5469 5.75416 7.47893 5.86946C7.41095 5.98476 7.37506 6.11615 7.375 6.25V13.75C7.37506 13.8838 7.41095 14.0152 7.47893 14.1305C7.5469 14.2458 7.6445 14.3408 7.76158 14.4057C7.87867 14.4706 8.01098 14.5029 8.14478 14.4994C8.27858 14.4958 8.40899 14.4566 8.5225 14.3856L14.5225 10.6356C14.6302 10.5682 14.719 10.4745 14.7806 10.3633C14.8421 10.2521 14.8744 10.1271 14.8744 10C14.8744 9.87292 14.8421 9.74791 14.7806 9.63673C14.719 9.52555 14.6302 9.43183 14.5225 9.36438ZM8.875 12.3972V7.60281L12.7103 10L8.875 12.3972Z" fill="black" style="fill:black;fill-opacity:1;"/>
</svg>
