<svg width="21" height="17" viewBox="0 0 21 17" fill="none" xmlns="http://www.w3.org/2000/svg">
<path d="M5.30002 6C5.30002 5.80109 5.37904 5.61032 5.51969 5.46967C5.66034 5.32902 5.85111 5.25 6.05002 5.25H15.05C15.2489 5.25 15.4397 5.32902 15.5803 5.46967C15.721 5.61032 15.8 5.80109 15.8 6C15.8 6.19891 15.721 6.38968 15.5803 6.53033C15.4397 6.67098 15.2489 6.75 15.05 6.75H6.05002C5.85111 6.75 5.66034 6.67098 5.51969 6.53033C5.37904 6.38968 5.30002 6.19891 5.30002 6ZM6.05002 9.75H15.05C15.2489 9.75 15.4397 9.67098 15.5803 9.53033C15.721 9.38968 15.8 9.19891 15.8 9C15.8 8.80109 15.721 8.61032 15.5803 8.46967C15.4397 8.32902 15.2489 8.25 15.05 8.25H6.05002C5.85111 8.25 5.66034 8.32902 5.51969 8.46967C5.37904 8.61032 5.30002 8.80109 5.30002 9C5.30002 9.19891 5.37904 9.38968 5.51969 9.53033C5.66034 9.67098 5.85111 9.75 6.05002 9.75ZM20.3 1.5V15.75C20.2999 15.8778 20.2672 16.0035 20.2049 16.1151C20.1426 16.2268 20.0528 16.3206 19.944 16.3878C19.8353 16.4549 19.7112 16.4932 19.5835 16.4989C19.4557 16.5046 19.3287 16.4775 19.2144 16.4203L16.55 15.0881L13.8856 16.4203C13.7814 16.4725 13.6665 16.4996 13.55 16.4996C13.4335 16.4996 13.3186 16.4725 13.2144 16.4203L10.55 15.0881L7.88564 16.4203C7.78145 16.4725 7.66653 16.4996 7.55002 16.4996C7.4335 16.4996 7.31859 16.4725 7.21439 16.4203L4.55002 15.0881L1.88564 16.4203C1.77133 16.4775 1.64429 16.5046 1.51659 16.4989C1.38889 16.4932 1.26476 16.4549 1.15599 16.3878C1.04723 16.3206 0.957429 16.2268 0.895127 16.1151C0.832826 16.0035 0.800087 15.8778 0.800018 15.75V1.5C0.800018 1.10218 0.958053 0.720644 1.23936 0.43934C1.52066 0.158035 1.90219 0 2.30002 0H18.8C19.1978 0 19.5794 0.158035 19.8607 0.43934C20.142 0.720644 20.3 1.10218 20.3 1.5ZM18.8 1.5H2.30002V14.5369L4.21439 13.5787C4.31859 13.5266 4.4335 13.4995 4.55002 13.4995C4.66653 13.4995 4.78145 13.5266 4.88564 13.5787L7.55002 14.9119L10.2144 13.5787C10.3186 13.5266 10.4335 13.4995 10.55 13.4995C10.6665 13.4995 10.7814 13.5266 10.8856 13.5787L13.55 14.9119L16.2144 13.5787C16.3186 13.5266 16.4335 13.4995 16.55 13.4995C16.6665 13.4995 16.7814 13.5266 16.8856 13.5787L18.8 14.5369V1.5Z" fill="#70798F" style="fill:#70798F;fill:color(display-p3 0.4392 0.4745 0.5608);fill-opacity:1;"/>
</svg>
