<svg width="24" height="18" viewBox="0 0 24 18" fill="none" xmlns="http://www.w3.org/2000/svg">
<path d="M22.95 10.1C22.8712 10.1591 22.7816 10.2021 22.6861 10.2265C22.5907 10.251 22.4914 10.2564 22.3939 10.2425C22.2964 10.2285 22.2026 10.1955 22.1179 10.1454C22.0331 10.0952 21.9591 10.0288 21.9 9.95C21.448 9.34237 20.8596 8.84936 20.1822 8.51067C19.5048 8.17198 18.7573 7.99706 18 8C17.8525 7.99999 17.7083 7.95649 17.5854 7.87495C17.4625 7.79341 17.3664 7.67745 17.3091 7.54156C17.2701 7.44929 17.2501 7.35015 17.2501 7.25C17.2501 7.14985 17.2701 7.05071 17.3091 6.95844C17.3664 6.82255 17.4625 6.70659 17.5854 6.62505C17.7083 6.54351 17.8525 6.50001 18 6.5C18.4208 6.49996 18.8332 6.38191 19.1903 6.15926C19.5474 5.9366 19.8349 5.61827 20.0201 5.24041C20.2053 4.86256 20.2809 4.44033 20.2382 4.02168C20.1955 3.60304 20.0362 3.20476 19.7785 2.87208C19.5208 2.53941 19.175 2.28568 18.7803 2.1397C18.3856 1.99373 17.9579 1.96137 17.5457 2.0463C17.1336 2.13122 16.7535 2.33003 16.4487 2.62015C16.1438 2.91026 15.9265 3.28004 15.8213 3.6875C15.7966 3.78291 15.7535 3.87254 15.6942 3.95127C15.6349 4.03 15.5608 4.09628 15.4759 4.14634C15.391 4.1964 15.2971 4.22924 15.1995 4.24301C15.1019 4.25677 15.0026 4.25118 14.9072 4.22656C14.8118 4.20194 14.7222 4.15876 14.6434 4.0995C14.5647 4.04024 14.4984 3.96605 14.4484 3.88117C14.3983 3.7963 14.3655 3.70239 14.3517 3.60481C14.3379 3.50724 14.3435 3.40791 14.3681 3.3125C14.5142 2.74748 14.79 2.22434 15.1738 1.7847C15.5576 1.34507 16.0387 1.00107 16.5788 0.780078C17.1189 0.559088 17.7032 0.467208 18.285 0.511747C18.8669 0.556286 19.4304 0.736016 19.9306 1.03664C20.4308 1.33725 20.8539 1.75047 21.1663 2.24339C21.4787 2.73632 21.6717 3.29535 21.7301 3.87601C21.7884 4.45667 21.7104 5.04293 21.5023 5.58814C21.2942 6.13335 20.9617 6.62246 20.5313 7.01656C21.5511 7.45812 22.4376 8.15882 23.1028 9.04906C23.1619 9.12805 23.2048 9.21793 23.2291 9.31354C23.2534 9.40915 23.2587 9.50861 23.2445 9.60623C23.2303 9.70386 23.1969 9.79772 23.1464 9.88245C23.0959 9.96718 23.0292 10.0411 22.95 10.1ZM17.8988 15.875C17.953 15.9604 17.9895 16.0558 18.0059 16.1556C18.0223 16.2554 18.0184 16.3575 17.9943 16.4558C17.9702 16.554 17.9265 16.6464 17.8658 16.7273C17.8052 16.8082 17.7287 16.8761 17.6412 16.9267C17.5536 16.9773 17.4567 17.0097 17.3563 17.0219C17.2558 17.0341 17.154 17.0258 17.0569 16.9977C16.9597 16.9695 16.8693 16.9219 16.791 16.8579C16.7127 16.7938 16.6481 16.7146 16.6013 16.625C16.1288 15.825 15.4559 15.162 14.649 14.7014C13.8421 14.2409 12.9291 13.9986 12 13.9986C11.0709 13.9986 10.1579 14.2409 9.35099 14.7014C8.54409 15.162 7.87122 15.825 7.39876 16.625C7.35187 16.7146 7.28734 16.7938 7.20905 16.8579C7.13075 16.9219 7.04031 16.9695 6.94316 16.9977C6.84602 17.0258 6.74417 17.0341 6.64376 17.0219C6.54334 17.0097 6.44644 16.9773 6.35886 16.9267C6.27129 16.8761 6.19486 16.8082 6.13417 16.7273C6.07349 16.6464 6.0298 16.554 6.00573 16.4558C5.98167 16.3575 5.97772 16.2554 5.99414 16.1556C6.01056 16.0558 6.04699 15.9604 6.10126 15.875C6.82838 14.6257 7.93707 13.6425 9.26438 13.07C8.5175 12.4982 7.9686 11.7066 7.69482 10.8067C7.42105 9.90678 7.43616 8.94368 7.73805 8.05278C8.03994 7.16189 8.61342 6.388 9.37789 5.83988C10.1423 5.29177 11.0594 4.99699 12 4.99699C12.9407 4.99699 13.8577 5.29177 14.6221 5.83988C15.3866 6.388 15.9601 7.16189 16.262 8.05278C16.5639 8.94368 16.579 9.90678 16.3052 10.8067C16.0314 11.7066 15.4825 12.4982 14.7356 13.07C16.063 13.6425 17.1716 14.6257 17.8988 15.875ZM12 12.5C12.5934 12.5 13.1734 12.3241 13.6667 11.9944C14.1601 11.6648 14.5446 11.1962 14.7716 10.648C14.9987 10.0999 15.0581 9.49667 14.9424 8.91473C14.8266 8.33279 14.5409 7.79824 14.1213 7.37868C13.7018 6.95912 13.1672 6.6734 12.5853 6.55764C12.0033 6.44189 11.4001 6.5013 10.852 6.72836C10.3038 6.95542 9.83525 7.33994 9.5056 7.83329C9.17596 8.32664 9.00001 8.90666 9.00001 9.5C9.00001 10.2956 9.31608 11.0587 9.87869 11.6213C10.4413 12.1839 11.2044 12.5 12 12.5ZM6.75001 7.25C6.75001 7.05109 6.67099 6.86032 6.53034 6.71967C6.38969 6.57902 6.19892 6.5 6.00001 6.5C5.57919 6.49996 5.16682 6.38191 4.80973 6.15926C4.45264 5.9366 4.16515 5.61827 3.97991 5.24041C3.79468 4.86256 3.71912 4.44033 3.76182 4.02168C3.80452 3.60304 3.96377 3.20476 4.22149 2.87208C4.4792 2.53941 4.82504 2.28568 5.21973 2.1397C5.61442 1.99373 6.04213 1.96137 6.45429 2.0463C6.86645 2.13122 7.24653 2.33003 7.55136 2.62015C7.85619 2.91026 8.07355 3.28004 8.17876 3.6875C8.22849 3.8802 8.35273 4.04525 8.52415 4.14634C8.69557 4.24743 8.90013 4.27629 9.09282 4.22656C9.28552 4.17683 9.45057 4.05259 9.55166 3.88117C9.65276 3.70975 9.68161 3.5052 9.63188 3.3125C9.48586 2.74748 9.20999 2.22434 8.82621 1.7847C8.44243 1.34507 7.96134 1.00107 7.42122 0.780078C6.88109 0.559088 6.29685 0.467208 5.71497 0.511747C5.13309 0.556286 4.56964 0.736016 4.06944 1.03664C3.56924 1.33725 3.14611 1.75047 2.83372 2.24339C2.52132 2.73632 2.32828 3.29535 2.26995 3.87601C2.21162 4.45667 2.28962 5.04293 2.49774 5.58814C2.70586 6.13335 3.03835 6.62246 3.46876 7.01656C2.44996 7.45854 1.56443 8.15921 0.90001 9.04906C0.780538 9.20819 0.729174 9.40826 0.757216 9.60526C0.785259 9.80227 0.890411 9.98006 1.04954 10.0995C1.20867 10.219 1.40874 10.2704 1.60574 10.2423C1.80275 10.2143 1.98054 10.1091 2.10001 9.95C2.55206 9.34237 3.14046 8.84936 3.81785 8.51067C4.49523 8.17198 5.24268 7.99706 6.00001 8C6.19892 8 6.38969 7.92098 6.53034 7.78033C6.67099 7.63968 6.75001 7.44891 6.75001 7.25Z" fill="black" style="fill:black;fill-opacity:1;"/>
</svg>
