<svg width="19" height="19" viewBox="0 0 19 19" fill="none" xmlns="http://www.w3.org/2000/svg">
<path d="M18.3113 4.87843L14.1216 0.689675C13.9823 0.55035 13.8169 0.439831 13.6349 0.364427C13.4529 0.289024 13.2578 0.250214 13.0608 0.250214C12.8638 0.250214 12.6687 0.289024 12.4867 0.364427C12.3047 0.439831 12.1393 0.55035 12 0.689675L0.439695 12.25C0.299801 12.3888 0.188889 12.554 0.113407 12.736C0.0379245 12.918 -0.000621974 13.1132 7.58901e-06 13.3103V17.5C7.58901e-06 17.8978 0.158043 18.2793 0.439347 18.5606C0.720652 18.842 1.10218 19 1.50001 19H17.25C17.4489 19 17.6397 18.921 17.7803 18.7803C17.921 18.6397 18 18.4489 18 18.25C18 18.0511 17.921 17.8603 17.7803 17.7197C17.6397 17.579 17.4489 17.5 17.25 17.5H7.81126L18.3113 6.99999C18.4506 6.86069 18.5611 6.69532 18.6365 6.51331C18.7119 6.3313 18.7507 6.13622 18.7507 5.93921C18.7507 5.74219 18.7119 5.54711 18.6365 5.3651C18.5611 5.18309 18.4506 5.01772 18.3113 4.87843ZM4.43626 15.625L12.375 7.6853L13.9397 9.24999L6.00001 17.1897L4.43626 15.625ZM3.37501 14.5647L1.81032 13L9.75001 5.0603L11.3147 6.62499L3.37501 14.5647ZM1.50001 14.8103L4.18969 17.5H1.50001V14.8103ZM15 8.18968L10.8113 3.99999L13.0613 1.74999L17.25 5.93967L15 8.18968Z" fill="black" style="fill:black;fill-opacity:1;"/>
</svg>
