<svg width="20" height="20" viewBox="0 0 20 20" fill="none" xmlns="http://www.w3.org/2000/svg">
<path fill-rule="evenodd" clip-rule="evenodd" d="M6.67331 2.51101C5.56164 1.86351 4.16664 2.66434 4.16664 3.95101V6.66684C3.83834 6.66684 3.51325 6.73151 3.20993 6.85714C2.90662 6.98278 2.63102 7.16693 2.39887 7.39908C2.16673 7.63122 1.98258 7.90682 1.85694 8.21013C1.73131 8.51345 1.66664 8.83854 1.66664 9.16684C1.66664 9.49515 1.73131 9.82024 1.85694 10.1236C1.98258 10.4269 2.16673 10.7025 2.39887 10.9346C2.63102 11.1668 2.90662 11.3509 3.20993 11.4765C3.51325 11.6022 3.83834 11.6668 4.16664 11.6668V14.1668C4.16664 15.5402 5.73414 16.3243 6.83331 15.5002L8.54998 14.2118C9.46763 13.5239 10.536 13.0645 11.6666 12.8718V15.2418C11.6666 15.7866 11.8634 16.3131 12.2209 16.7242C12.5784 17.1352 13.0724 17.4032 13.612 17.4788C14.1515 17.5543 14.7001 17.4322 15.1567 17.1351C15.6134 16.8379 15.9472 16.3857 16.0966 15.8618L17.405 11.2818C17.8758 10.7258 18.1822 10.0495 18.2897 9.32893C18.3973 8.60834 18.3017 7.87204 18.0137 7.20279C17.7258 6.53354 17.2569 5.95788 16.6597 5.54051C16.0625 5.12313 15.3608 4.8806 14.6333 4.84018L12.1183 4.70018C10.8878 4.63183 9.69105 4.27224 8.62664 3.65101L6.67331 2.51101ZM15.305 12.5652L14.4941 15.4043C14.4551 15.5418 14.3677 15.6604 14.248 15.7384C14.1283 15.8164 13.9844 15.8485 13.843 15.8287C13.7015 15.8089 13.5719 15.7386 13.4783 15.6307C13.3846 15.5228 13.3331 15.3847 13.3333 15.2418V12.7335L14.6333 12.661C14.8594 12.6474 15.0841 12.6153 15.305 12.5652ZM3.33331 9.16684C3.33331 8.94583 3.42111 8.73387 3.57739 8.57759C3.73367 8.42131 3.94563 8.33351 4.16664 8.33351V10.0002C3.94563 10.0002 3.73367 9.91238 3.57739 9.7561C3.42111 9.59982 3.33331 9.38786 3.33331 9.16684Z" fill="#B2C0D4"/>
</svg>
