<svg width="22" height="19" viewBox="0 0 22 19" fill="none" xmlns="http://www.w3.org/2000/svg">
<path d="M10.25 7.675V14.5C10.25 14.6989 10.329 14.8897 10.4697 15.0303C10.6103 15.171 10.8011 15.25 11 15.25C11.1989 15.25 11.3897 15.171 11.5303 15.0303C11.671 14.8897 11.75 14.6989 11.75 14.5V7.675C12.6605 7.48914 13.4696 6.97181 14.0204 6.22331C14.5712 5.4748 14.8244 4.54846 14.731 3.62385C14.6376 2.69925 14.2042 1.84227 13.5149 1.21905C12.8255 0.595823 11.9293 0.250763 11 0.250763C10.0707 0.250763 9.17449 0.595823 8.48514 1.21905C7.79578 1.84227 7.36239 2.69925 7.26899 3.62385C7.17559 4.54846 7.42882 5.4748 7.9796 6.22331C8.53038 6.97181 9.33947 7.48914 10.25 7.675ZM11 1.75C11.445 1.75 11.88 1.88196 12.25 2.12919C12.62 2.37642 12.9084 2.72783 13.0787 3.13896C13.249 3.55009 13.2936 4.00249 13.2068 4.43895C13.12 4.87541 12.9057 5.27632 12.591 5.59099C12.2763 5.90566 11.8754 6.11995 11.439 6.20676C11.0025 6.29358 10.5501 6.24902 10.139 6.07873C9.72783 5.90843 9.37643 5.62004 9.12919 5.25003C8.88196 4.88002 8.75 4.44501 8.75 4C8.75 3.40326 8.98705 2.83096 9.40901 2.40901C9.83097 1.98705 10.4033 1.75 11 1.75ZM21.5 14.5C21.5 17.4231 16.0897 19 11 19C5.91031 19 0.5 17.4231 0.5 14.5C0.5 13.7744 0.857187 12.7066 2.5625 11.7428C3.71187 11.0922 5.2925 10.5925 7.13469 10.2972C7.23213 10.2818 7.33165 10.2858 7.42757 10.3088C7.52349 10.3319 7.61392 10.3736 7.69371 10.4317C7.77349 10.4897 7.84107 10.5628 7.89258 10.647C7.94408 10.7311 7.97852 10.8246 7.99391 10.922C8.0093 11.0195 8.00534 11.119 7.98227 11.2149C7.9592 11.3108 7.91746 11.4013 7.85943 11.481C7.80141 11.5608 7.72824 11.6284 7.6441 11.6799C7.55997 11.7314 7.46651 11.7659 7.36906 11.7812C5.72469 12.0456 4.27531 12.4966 3.29844 13.0516C2.47344 13.5156 2 14.0444 2 14.5C2 15.7525 5.42375 17.5 11 17.5C16.5763 17.5 20 15.7525 20 14.5C20 14.0444 19.5266 13.5156 18.7016 13.0478C17.7209 12.4928 16.2753 12.0419 14.6309 11.7775C14.5314 11.7645 14.4355 11.7317 14.3489 11.6809C14.2623 11.6302 14.1868 11.5626 14.1268 11.4821C14.0668 11.4017 14.0236 11.31 13.9997 11.2125C13.9758 11.1151 13.9717 11.0138 13.9876 10.9147C14.0035 10.8156 14.0392 10.7207 14.0925 10.6357C14.1458 10.5506 14.2156 10.4771 14.2978 10.4196C14.38 10.362 14.4729 10.3215 14.571 10.3004C14.6691 10.2794 14.7705 10.2783 14.8691 10.2972C16.7113 10.5925 18.2919 11.0922 19.4412 11.7428C21.1428 12.7066 21.5 13.7744 21.5 14.5Z" fill="black" style="fill:black;fill-opacity:1;"/>
</svg>
