<svg width="240" height="61" viewBox="0 0 240 61" fill="none" xmlns="http://www.w3.org/2000/svg">
<path d="M29.964 41.4423H37.0246V47.0808H29.964V54.2661H17.0154C11.458 54.2661 7.23536 52.8939 4.34126 50.1495C1.44717 47.4176 0.00012207 43.4881 0.00012207 38.3486V19.038H5.71346V37.65C5.71346 41.592 6.81746 44.4112 9.03169 46.1078C11.2584 47.7856 14.2086 48.6276 17.8886 48.6276H24.3255V0.450928H29.964V41.4423Z" fill="#F5F5F5" style="fill:#F5F5F5;fill:color(display-p3 0.9608 0.9608 0.9608);fill-opacity:1;"/>
<path d="M46.5082 47.0811H35.8799V41.4426H46.5082V47.0811Z" fill="#F5F5F5" style="fill:#F5F5F5;fill:color(display-p3 0.9608 0.9608 0.9608);fill-opacity:1;"/>
<path d="M55.9928 47.0811H45.3645V41.4426H55.9928V47.0811Z" fill="#F5F5F5" style="fill:#F5F5F5;fill:color(display-p3 0.9608 0.9608 0.9608);fill-opacity:1;"/>
<path d="M79.9729 47.0811H54.8491V41.4426H63.9805V15.1213H69.6689V41.4426H79.9729V47.0811ZM62.1592 60.4289C61.2735 60.4289 60.4939 60.1357 59.814 59.5557C59.1466 58.9694 58.816 58.2084 58.816 57.2604C58.816 56.3435 59.1404 55.5763 59.789 54.965C60.4377 54.3475 61.2236 54.0419 62.1592 54.0419C63.1073 54.0419 63.9056 54.3475 64.5543 54.965C65.2155 55.5763 65.5523 56.3435 65.5523 57.2604C65.5523 58.2084 65.2092 58.9694 64.5294 59.5557C63.862 60.1357 63.0698 60.4289 62.1592 60.4289ZM71.8145 60.4289C70.8789 60.4289 70.0805 60.1357 69.4194 59.5557C68.752 58.9694 68.4214 58.2084 68.4214 57.2604C68.4214 56.3435 68.7458 55.5763 69.3944 54.965C70.0431 54.3475 70.8477 54.0419 71.8145 54.0419C72.7251 54.0419 73.511 54.3475 74.1597 54.965C74.8084 55.5763 75.1327 56.3435 75.1327 57.2604C75.1327 58.2084 74.7959 58.9694 74.1348 59.5557C73.4674 60.1357 72.694 60.4289 71.8145 60.4289Z" fill="#F5F5F5" style="fill:#F5F5F5;fill:color(display-p3 0.9608 0.9608 0.9608);fill-opacity:1;"/>
<path d="M89.4476 47.0811H78.8193V41.4426H89.4476V47.0811Z" fill="#F5F5F5" style="fill:#F5F5F5;fill:color(display-p3 0.9608 0.9608 0.9608);fill-opacity:1;"/>
<path d="M98.9323 47.0811H88.304V41.4426H98.9323V47.0811Z" fill="#F5F5F5" style="fill:#F5F5F5;fill:color(display-p3 0.9608 0.9608 0.9608);fill-opacity:1;"/>
<path d="M108.417 47.0811H97.7891V41.4426H108.417V47.0811Z" fill="#F5F5F5" style="fill:#F5F5F5;fill:color(display-p3 0.9608 0.9608 0.9608);fill-opacity:1;"/>
<path d="M117.902 47.0811H107.274V41.4426H117.902V47.0811Z" fill="#F5F5F5" style="fill:#F5F5F5;fill:color(display-p3 0.9608 0.9608 0.9608);fill-opacity:1;"/>
<path d="M129.008 15.1213H143.08C148.6 15.1213 152.797 16.5059 155.679 19.2628C158.554 22.0259 159.995 26.0116 159.995 31.2134V47.0811H116.758V41.4426H123.32V12.0276H129.008V15.1213ZM129.008 41.4426H154.307V30.2903C154.307 26.9659 153.334 24.5458 151.388 23.0301C149.454 21.5207 146.847 20.7598 143.554 20.7598H129.008V41.4426Z" fill="#F5F5F5" style="fill:#F5F5F5;fill:color(display-p3 0.9608 0.9608 0.9608);fill-opacity:1;"/>
<path d="M193.026 41.4426H200.062V47.0811H192.976C192.907 51.784 191.766 55.0711 189.558 56.936C187.362 58.7947 184.194 59.7303 180.052 59.7303C178.518 59.7303 177.021 59.6118 175.562 59.381C174.114 59.144 172.555 58.7448 170.896 58.1835L169.873 52.1957C173.397 53.4244 176.715 54.0419 179.828 54.0419C182.073 54.0419 183.882 53.5679 185.267 52.6198C186.645 51.6842 187.338 50.0126 187.338 47.6051V47.0811H183.944C180.414 47.0811 177.333 46.4262 174.688 45.1101C172.056 43.7816 170.004 41.9291 168.526 39.5465C167.041 37.1701 166.305 34.3945 166.305 31.2135V31.1636C166.305 27.9389 167.066 25.1197 168.601 22.7059C170.129 20.2983 172.274 18.4333 175.038 17.1173C177.794 15.7887 181.013 15.1213 184.693 15.1213H192.577C192.658 15.1213 192.733 15.1213 192.801 15.1213C192.882 15.1213 192.939 15.1213 192.976 15.1213H193.026V41.4426ZM183.545 41.4426H187.338V20.685H183.545C181.213 20.685 179.154 21.1091 177.358 21.9574C175.574 22.8057 174.177 24.0219 173.166 25.6C172.15 27.1655 171.645 29.018 171.645 31.1636V31.2135C171.645 33.2967 172.15 35.0993 173.166 36.6275C174.177 38.1618 175.574 39.3469 177.358 40.1952C179.154 41.031 181.213 41.4426 183.545 41.4426Z" fill="#F5F5F5" style="fill:#F5F5F5;fill:color(display-p3 0.9608 0.9608 0.9608);fill-opacity:1;"/>
<path d="M209.529 47.0811H198.901V41.4426H209.529V47.0811Z" fill="#F5F5F5" style="fill:#F5F5F5;fill:color(display-p3 0.9608 0.9608 0.9608);fill-opacity:1;"/>
<path d="M219.014 47.0811H208.385V41.4426H219.014V47.0811Z" fill="#F5F5F5" style="fill:#F5F5F5;fill:color(display-p3 0.9608 0.9608 0.9608);fill-opacity:1;"/>
<path d="M227.001 8.11075C226.116 8.11075 225.342 7.83007 224.681 7.26248C224.014 6.68242 223.683 5.90899 223.683 4.94222C223.683 4.03157 224.008 3.27063 224.656 2.67185C225.305 2.07307 226.085 1.77368 227.001 1.77368C227.962 1.77368 228.773 2.07307 229.422 2.67185C230.07 3.27063 230.395 4.03157 230.395 4.94222C230.395 5.90899 230.058 6.68242 229.397 7.26248C228.729 7.83007 227.931 8.11075 227.001 8.11075ZM236.657 8.11075C235.74 8.11075 234.942 7.83007 234.262 7.26248C233.594 6.68242 233.264 5.90899 233.264 4.94222C233.264 4.03157 233.588 3.27063 234.237 2.67185C234.898 2.07307 235.709 1.77368 236.657 1.77368C237.586 1.77368 238.378 2.07307 239.027 2.67185C239.676 3.27063 240 4.03157 240 4.94222C240 5.90899 239.657 6.68242 238.977 7.26248C238.31 7.83007 237.536 8.11075 236.657 8.11075ZM234.661 47.0812H217.87V41.4427H229.022V15.1214H234.661V47.0812Z" fill="#F5F5F5" style="fill:#F5F5F5;fill:color(display-p3 0.9608 0.9608 0.9608);fill-opacity:1;"/>
</svg>
