<svg width="40" height="41" viewBox="0 0 40 41" fill="none" xmlns="http://www.w3.org/2000/svg">
<path d="M20.6 6L23.4641 1.51421e-07L16.5359 -1.51421e-07L19.4 6L20.6 6ZM19.5757 40.4243C19.81 40.6586 20.1899 40.6586 20.4243 40.4243L24.2426 36.6059C24.477 36.3716 24.477 35.9917 24.2426 35.7574C24.0083 35.523 23.6284 35.523 23.3941 35.7574L20 39.1515L16.6059 35.7574C16.3716 35.523 15.9917 35.523 15.7574 35.7574C15.523 35.9917 15.523 36.3716 15.7574 36.6059L19.5757 40.4243ZM19.4 1.42857C19.4 1.75994 19.6686 2.02857 20 2.02857C20.3314 2.02857 20.6 1.75994 20.6 1.42857L19.4 1.42857ZM20.6 5.2381C20.6 4.90672 20.3314 4.6381 20 4.6381C19.6686 4.6381 19.4 4.90672 19.4 5.2381L20.6 5.2381ZM19.4 8.09524C19.4 8.42661 19.6686 8.69524 20 8.69524C20.3314 8.69524 20.6 8.42661 20.6 8.09524L19.4 8.09524ZM20.6 11.9048C20.6 11.5734 20.3314 11.3048 20 11.3048C19.6686 11.3048 19.4 11.5734 19.4 11.9048L20.6 11.9048ZM19.4 14.7619C19.4 15.0933 19.6686 15.3619 20 15.3619C20.3314 15.3619 20.6 15.0933 20.6 14.7619L19.4 14.7619ZM20.6 18.5714C20.6 18.2401 20.3314 17.9714 20 17.9714C19.6686 17.9714 19.4 18.2401 19.4 18.5714L20.6 18.5714ZM19.4 21.4286C19.4 21.7599 19.6686 22.0286 20 22.0286C20.3314 22.0286 20.6 21.7599 20.6 21.4286L19.4 21.4286ZM20.6 25.2381C20.6 24.9067 20.3314 24.6381 20 24.6381C19.6686 24.6381 19.4 24.9067 19.4 25.2381L20.6 25.2381ZM19.4 28.0952C19.4 28.4266 19.6686 28.6952 20 28.6952C20.3314 28.6952 20.6 28.4266 20.6 28.0952L19.4 28.0952ZM20.6 31.9048C20.6 31.5734 20.3314 31.3048 20 31.3048C19.6686 31.3048 19.4 31.5734 19.4 31.9048L20.6 31.9048ZM19.4 34.7619C19.4 35.0933 19.6686 35.3619 20 35.3619C20.3314 35.3619 20.6 35.0933 20.6 34.7619L19.4 34.7619ZM20.6 38.5714C20.6 38.2401 20.3314 37.9714 20 37.9714C19.6686 37.9714 19.4 38.2401 19.4 38.5714L20.6 38.5714ZM20 5.2381L19.4 5.2381L19.4 8.09524L20 8.09524L20.6 8.09524L20.6 5.2381L20 5.2381ZM20 11.9048L19.4 11.9048L19.4 14.7619L20 14.7619L20.6 14.7619L20.6 11.9048L20 11.9048ZM20 18.5714L19.4 18.5714L19.4 21.4286L20 21.4286L20.6 21.4286L20.6 18.5714L20 18.5714ZM20 25.2381L19.4 25.2381L19.4 28.0952L20 28.0952L20.6 28.0952L20.6 25.2381L20 25.2381ZM20 31.9048L19.4 31.9048L19.4 34.7619L20 34.7619L20.6 34.7619L20.6 31.9048L20 31.9048ZM20 38.5714L19.4 38.5714L19.4 40L20 40L20.6 40L20.6 38.5714L20 38.5714Z" fill="#1A66FF" style="fill:#1A66FF;fill:color(display-p3 0.1000 0.3984 1.0000);fill-opacity:1;"/>
</svg>
