<svg width="24" height="24" viewBox="0 0 24 24" fill="none" xmlns="http://www.w3.org/2000/svg">
<path d="M8.50024 14.5001H15.5003M12.0003 18.0001V11.0001" stroke="#1A66FF" style="stroke:#1A66FF;stroke:color(display-p3 0.1000 0.3984 1.0000);stroke-opacity:1;" stroke-width="1.5" stroke-linecap="round"/>
<path d="M7.00024 6.00061C5.7796 6.00427 5.10407 6.03347 4.54897 6.26646C3.77144 6.59281 3.13825 7.19564 2.76835 7.9617C2.46642 8.58699 2.41702 9.38811 2.3182 10.9903L2.16336 13.501C1.91763 17.4854 1.79476 19.4776 2.96393 20.7389C4.13309 22.0001 6.10277 22.0001 10.0422 22.0001H13.9584C17.8978 22.0001 19.8674 22.0001 21.0366 20.7389C22.2058 19.4776 22.0829 17.4854 21.8372 13.501L21.6823 10.9903C21.5835 9.38811 21.5341 8.58699 21.2322 7.9617C20.8623 7.19564 20.2291 6.59281 19.4516 6.26646C18.8965 6.03347 18.2209 6.00427 17.0003 6.00061" stroke="#1A66FF" style="stroke:#1A66FF;stroke:color(display-p3 0.1000 0.3984 1.0000);stroke-opacity:1;" stroke-width="1.5" stroke-linecap="round"/>
<path d="M17.0003 7.00012L16.1145 4.78555C15.7323 3.83008 15.3997 2.74622 14.4169 2.25967C13.8927 2.00012 13.2619 2.00012 12.0003 2.00012C10.7387 2.00012 10.1079 2.00012 9.5836 2.25967C8.60085 2.74622 8.26826 3.83008 7.88607 4.78555L7.00024 7.00012" stroke="#1A66FF" style="stroke:#1A66FF;stroke:color(display-p3 0.1000 0.3984 1.0000);stroke-opacity:1;" stroke-width="1.5" stroke-linecap="round" stroke-linejoin="round"/>
<path d="M12 6.00012H12.009" stroke="#1A66FF" style="stroke:#1A66FF;stroke:color(display-p3 0.1000 0.3984 1.0000);stroke-opacity:1;" stroke-width="2" stroke-linecap="round" stroke-linejoin="round"/>
</svg>
