<svg width="24" height="24" viewBox="0 0 24 24" fill="none" xmlns="http://www.w3.org/2000/svg">
<path d="M21 17.9224V20.5002C21 20.9661 21 21.1991 20.9239 21.3829C20.8224 21.6279 20.6277 21.8226 20.3827 21.9241C20.1989 22.0002 19.9659 22.0002 19.5 22.0002C19.0341 22.0002 18.8011 22.0002 18.6173 21.9241C18.3723 21.8226 18.1776 21.6279 18.0761 21.3829C18 21.1991 18 20.9661 18 20.5002C18 20.0343 18 19.8013 17.9239 19.6175C17.8224 19.3725 17.6277 19.1778 17.3827 19.0763C17.1989 19.0002 16.9659 19.0002 16.5 19.0002H6.5C6.03406 19.0002 5.80109 19.0002 5.61732 19.0763C5.37229 19.1778 5.17761 19.3725 5.07612 19.6175C5 19.8013 5 20.0343 5 20.5002C5 20.9661 5 21.1991 4.92388 21.3829C4.82239 21.6279 4.62771 21.8226 4.38268 21.9241C4.19891 22.0002 3.96594 22.0002 3.5 22.0002C3.03406 22.0002 2.80109 22.0002 2.61732 21.9241C2.37229 21.8226 2.17761 21.6279 2.07612 21.3829C2 21.1991 2 20.9661 2 20.5002V17.9224C2 16.7202 2 16.119 2.17163 15.5522C2.34326 14.9853 2.67671 14.4851 3.3436 13.4848L4 12.5002L4.90128 10.5174C5.67759 8.80954 6.06575 7.95559 6.80758 7.47792C7.54942 7.00024 8.48744 7.00024 10.3635 7.00024H12.6365C14.5126 7.00024 15.4506 7.00024 16.1924 7.47792C16.9343 7.95559 17.3224 8.80954 18.0987 10.5174L19 12.5002L19.6564 13.4848C20.3233 14.4851 20.6567 14.9853 20.8284 15.5522C21 16.119 21 16.7202 21 17.9224Z" stroke="#1A66FF" style="stroke:#1A66FF;stroke:color(display-p3 0.1000 0.3984 1.0000);stroke-opacity:1;" stroke-width="1.5" stroke-linecap="round" stroke-linejoin="round"/>
<path d="M2 11.0002L4 12.5002L5.76114 12.9405C5.91978 12.9801 6.08269 13.0002 6.24621 13.0002H16.7538C16.9173 13.0002 17.0802 12.9801 17.2389 12.9405L19 12.5002L21 11.0002" stroke="#1A66FF" style="stroke:#1A66FF;stroke:color(display-p3 0.1000 0.3984 1.0000);stroke-opacity:1;" stroke-width="1.5" stroke-linecap="round" stroke-linejoin="round"/>
<path d="M17 16.0002V16.0102" stroke="#1A66FF" style="stroke:#1A66FF;stroke:color(display-p3 0.1000 0.3984 1.0000);stroke-opacity:1;" stroke-width="2" stroke-linecap="round" stroke-linejoin="round"/>
<path d="M6 16.0002V16.0102" stroke="#1A66FF" style="stroke:#1A66FF;stroke:color(display-p3 0.1000 0.3984 1.0000);stroke-opacity:1;" stroke-width="2" stroke-linecap="round" stroke-linejoin="round"/>
<path d="M19 7.00024C19 5.89567 18.1046 5.00024 17 5.00024" stroke="#1A66FF" style="stroke:#1A66FF;stroke:color(display-p3 0.1000 0.3984 1.0000);stroke-opacity:1;" stroke-width="1.5" stroke-linecap="round" stroke-linejoin="round"/>
<path d="M22 7.00024C22 4.23882 19.7614 2.00024 17 2.00024" stroke="#1A66FF" style="stroke:#1A66FF;stroke:color(display-p3 0.1000 0.3984 1.0000);stroke-opacity:1;" stroke-width="1.5" stroke-linecap="round" stroke-linejoin="round"/>
</svg>
