<svg width="24" height="24" viewBox="0 0 24 24" fill="none" xmlns="http://www.w3.org/2000/svg">
<path d="M4 12.0001L3.3436 12.9847C2.67671 13.985 2.34326 14.4852 2.17163 15.0521C2 15.6189 2 16.2201 2 17.4223V20.5001C2 20.966 2 21.199 2.07612 21.3828C2.17761 21.6278 2.37229 21.8225 2.61732 21.924C2.80109 22.0001 3.03406 22.0001 3.5 22.0001C3.96594 22.0001 4.19891 22.0001 4.38268 21.924C4.62771 21.8225 4.82239 21.6278 4.92388 21.3828C5 21.199 5 20.966 5 20.5001C5 20.0342 5 19.8012 5.07612 19.6174C5.17761 19.3724 5.37229 19.1777 5.61732 19.0762C5.80109 19.0001 6.03406 19.0001 6.5 19.0001H17.5C17.9659 19.0001 18.1989 19.0001 18.3827 19.0762C18.6277 19.1777 18.8224 19.3724 18.9239 19.6174C19 19.8012 19 20.0342 19 20.5001C19 20.966 19 21.199 19.0761 21.3828C19.1776 21.6278 19.3723 21.8225 19.6173 21.924C19.8011 22.0001 20.0341 22.0001 20.5 22.0001C20.9659 22.0001 21.1989 22.0001 21.3827 21.924C21.6277 21.8225 21.8224 21.6278 21.9239 21.3828C22 21.199 22 20.966 22 20.5001V17.4223C22 16.2201 22 15.6189 21.8284 15.0521C21.6567 14.4852 21.3233 13.985 20.6564 12.9847L20 12.0001L18.4777 12.3807C18.2392 12.4403 18.1199 12.4701 17.9982 12.4851C17.8764 12.5001 17.7535 12.5001 17.5076 12.5001H6.49242C6.24652 12.5001 6.12357 12.5001 6.00184 12.4851C5.88012 12.4701 5.76084 12.4403 5.52228 12.3807L4 12.0001ZM4 12.0001L4.96154 9.69243C5.70726 7.90269 6.08013 7.00782 6.8359 6.50397C7.59167 6.00012 8.56112 6.00012 10.5 6.00012M4 12.0001L2 10.5001" stroke="#1A66FF" style="stroke:#1A66FF;stroke:color(display-p3 0.1000 0.3984 1.0000);stroke-opacity:1;" stroke-width="1.5" stroke-linecap="round" stroke-linejoin="round"/>
<path d="M18 16.0001V16.0101" stroke="#1A66FF" style="stroke:#1A66FF;stroke:color(display-p3 0.1000 0.3984 1.0000);stroke-opacity:1;" stroke-width="2" stroke-linecap="round" stroke-linejoin="round"/>
<path d="M6 16.0001V16.0101" stroke="#1A66FF" style="stroke:#1A66FF;stroke:color(display-p3 0.1000 0.3984 1.0000);stroke-opacity:1;" stroke-width="2" stroke-linecap="round" stroke-linejoin="round"/>
<path d="M17 10.0001C19.2091 10.0001 21 8.20926 21 6.00012C21 3.79098 19.2091 2.00012 17 2.00012C14.7909 2.00012 13 3.79098 13 6.00012C13 8.20926 14.7909 10.0001 17 10.0001Z" stroke="#1A66FF" style="stroke:#1A66FF;stroke:color(display-p3 0.1000 0.3984 1.0000);stroke-opacity:1;" stroke-width="1.5" stroke-linecap="round" stroke-linejoin="round"/>
<path d="M17 4.00012V6.00012" stroke="#1A66FF" style="stroke:#1A66FF;stroke:color(display-p3 0.1000 0.3984 1.0000);stroke-opacity:1;" stroke-width="1.5" stroke-linecap="round" stroke-linejoin="round"/>
<path d="M17 7.99036V8.00036" stroke="#1A66FF" style="stroke:#1A66FF;stroke:color(display-p3 0.1000 0.3984 1.0000);stroke-opacity:1;" stroke-width="1.5" stroke-linecap="round" stroke-linejoin="round"/>
</svg>
