<svg width="24" height="24" viewBox="0 0 24 24" fill="none" xmlns="http://www.w3.org/2000/svg">
<path d="M19.5 5.50012L18.8803 15.5252C18.7219 18.0865 18.6428 19.3672 18.0008 20.288C17.6833 20.7432 17.2747 21.1274 16.8007 21.4161C15.8421 22.0001 14.559 22.0001 11.9927 22.0001C9.42312 22.0001 8.1383 22.0001 7.17905 21.415C6.7048 21.1258 6.296 20.7409 5.97868 20.2849C5.33688 19.3627 5.25945 18.0802 5.10461 15.5153L4.5 5.50012" stroke="#BF4040" style="stroke:#BF4040;stroke:color(display-p3 0.7490 0.2510 0.2510);stroke-opacity:1;" stroke-width="1.5" stroke-linecap="round"/>
<path d="M3 5.50012H21M16.0557 5.50012L15.3731 4.09185C14.9196 3.15638 14.6928 2.68864 14.3017 2.39693C14.215 2.33222 14.1231 2.27466 14.027 2.22482C13.5939 2.00012 13.0741 2.00012 12.0345 2.00012C10.9688 2.00012 10.436 2.00012 9.99568 2.23424C9.8981 2.28613 9.80498 2.34602 9.71729 2.41329C9.32164 2.71682 9.10063 3.20167 8.65861 4.17138L8.05292 5.50012" stroke="#BF4040" style="stroke:#BF4040;stroke:color(display-p3 0.7490 0.2510 0.2510);stroke-opacity:1;" stroke-width="1.5" stroke-linecap="round"/>
</svg>
