<svg width="183" height="61" viewBox="0 0 183 61" fill="none" xmlns="http://www.w3.org/2000/svg">
<mask id="mask0_2528_9644" style="mask-type:luminance" maskUnits="userSpaceOnUse" x="47" y="0" width="21" height="23">
<path d="M47.7173 0.5H67.8492V22.8939H47.7173V0.5Z" fill="white" style="fill:white;fill-opacity:1;"/>
</mask>
<g mask="url(#mask0_2528_9644)">
<mask id="mask1_2528_9644" style="mask-type:luminance" maskUnits="userSpaceOnUse" x="47" y="0" width="21" height="23">
<path d="M67.8255 0.535278V22.7085L47.853 1.15693L47.738 1.49388V0.535278H67.8255Z" fill="white" style="fill:white;fill-opacity:1;"/>
</mask>
<g mask="url(#mask1_2528_9644)">
<path d="M-1.17651 -0.719727H76.3852V61.7199H-1.17651V-0.719727Z" fill="white" style="fill:white;fill-opacity:1;"/>
</g>
</g>
<mask id="mask2_2528_9644" style="mask-type:luminance" maskUnits="userSpaceOnUse" x="47" y="38" width="21" height="23">
<path d="M47.7173 38.3046H67.8492V60.4999H47.7173V38.3046Z" fill="white" style="fill:white;fill-opacity:1;"/>
</mask>
<g mask="url(#mask2_2528_9644)">
<mask id="mask3_2528_9644" style="mask-type:luminance" maskUnits="userSpaceOnUse" x="47" y="38" width="21" height="23">
<path d="M66.0285 40.261L67.8255 38.3137V60.466H47.738V60.0533L66.0285 40.261Z" fill="white" style="fill:white;fill-opacity:1;"/>
</mask>
<g mask="url(#mask3_2528_9644)">
<path d="M-1.17651 -0.719849H76.3852V61.7197H-1.17651V-0.719849Z" fill="white" style="fill:white;fill-opacity:1;"/>
</g>
</g>
<mask id="mask4_2528_9644" style="mask-type:luminance" maskUnits="userSpaceOnUse" x="0" y="0" width="76" height="61">
<path d="M0.0432129 0.987183H75.1327V60.2558H0.0432129V0.987183Z" fill="white" style="fill:white;fill-opacity:1;"/>
</mask>
<g mask="url(#mask4_2528_9644)">
<mask id="mask5_2528_9644" style="mask-type:luminance" maskUnits="userSpaceOnUse" x="0" y="1" width="76" height="60">
<path d="M75.049 30.4988L67.8282 38.3138L66.0311 40.2611L47.7407 60.0534V40.2611H14.7526C14.7526 40.2611 8.56346 40.5876 7.9196 45.3819C7.9196 45.3819 7.66232 48.5176 11.4588 50.3655C11.4588 50.3655 0.101919 47.5825 0.0744928 35.8573C0.0496788 24.6884 15.4669 20.0417 21.4223 20.4047H47.7381V1.49393L47.853 1.15698L67.8256 22.7085L75.049 30.4988Z" fill="white" style="fill:white;fill-opacity:1;"/>
</mask>
<g mask="url(#mask5_2528_9644)">
<path d="M-1.17651 -0.719727H76.3852V61.7199H-1.17651V-0.719727Z" fill="#F15B28" style="fill:#F15B28;fill:color(display-p3 0.9451 0.3569 0.1569);fill-opacity:1;"/>
</g>
</g>
<mask id="mask6_2528_9644" style="mask-type:luminance" maskUnits="userSpaceOnUse" x="8" y="19" width="34" height="42">
<path d="M8.09204 19.8849H41.3649V60.5H8.09204V19.8849Z" fill="white" style="fill:white;fill-opacity:1;"/>
</mask>
<g mask="url(#mask6_2528_9644)">
<mask id="mask7_2528_9644" style="mask-type:luminance" maskUnits="userSpaceOnUse" x="8" y="19" width="34" height="42">
<path d="M21.5805 19.9058H41.365L28.0922 60.466H8.11572C8.11572 60.466 17.703 31.5814 21.5805 19.9058Z" fill="white" style="fill:white;fill-opacity:1;"/>
</mask>
<g mask="url(#mask7_2528_9644)">
<path d="M-1.17651 -0.719727H76.3852V61.7199H-1.17651V-0.719727Z" fill="white" style="fill:white;fill-opacity:1;"/>
</g>
</g>
<mask id="mask8_2528_9644" style="mask-type:luminance" maskUnits="userSpaceOnUse" x="21" y="0" width="28" height="21">
<path d="M21.3049 0.5H48.0922V20.5H21.3049V0.5Z" fill="white" style="fill:white;fill-opacity:1;"/>
</mask>
<g mask="url(#mask8_2528_9644)">
<mask id="mask9_2528_9644" style="mask-type:luminance" maskUnits="userSpaceOnUse" x="21" y="0" width="28" height="21">
<path d="M48.0686 0.535248L47.8531 1.15951L47.7382 1.49646L41.1939 20.402H21.425C27.5358 1.50821 45.1014 0.567898 47.7382 0.535248C47.9537 0.533942 48.0712 0.535248 48.0712 0.535248" fill="white" style="fill:white;fill-opacity:1;"/>
</mask>
<g mask="url(#mask9_2528_9644)">
<path d="M-1.17651 -0.719727H76.3852V61.7199H-1.17651V-0.719727Z" fill="white" style="fill:white;fill-opacity:1;"/>
</g>
</g>
<path d="M100.025 23.6748H95.4644L93.9546 19.2553H86.6985L85.1836 23.6748H80.6492L87.6441 4.50806H92.983L100.025 23.6748ZM87.9993 15.4732H92.6539L90.3135 8.80739L87.9993 15.4732Z" fill="white" style="fill:white;fill-opacity:1;"/>
<path d="M105.98 16.4448L106.121 16.7008L105.98 16.9411V23.6748H101.54V4.50806H105.98V16.4448ZM110.99 16.6538L115.342 23.6748H110.259L106.121 16.7008L110.353 9.9201H115.175L110.99 16.6538Z" fill="white" style="fill:white;fill-opacity:1;"/>
<path d="M131.551 16.9151L132.711 9.92017H137.318L134.173 23.6749H128.573L127.346 16.9151C127.252 16.3796 127.152 15.8481 127.048 15.3218C126.946 14.7928 126.84 14.2691 126.729 13.7493C126.666 14.1921 126.583 14.6661 126.478 15.1703C126.377 15.6718 126.256 16.2621 126.118 16.9412L124.885 23.6749H119.379L116.145 9.92017H120.727L121.887 16.9151C122.012 17.5315 122.122 18.08 122.216 18.5606C122.31 19.0412 122.396 19.4944 122.477 19.9189L123.02 16.9151L124.201 9.92017H129.237L130.464 16.8942L130.987 19.7047C131.062 19.2946 131.151 18.8479 131.253 18.3673C131.358 17.8867 131.457 17.4035 131.551 16.9151Z" fill="white" style="fill:white;fill-opacity:1;"/>
<path d="M145.587 9.40295C146.909 9.40295 148.055 9.57273 149.024 9.90968C149.996 10.2479 150.744 10.8187 151.27 11.6231C151.799 12.425 152.064 13.5351 152.064 14.956V23.3928C151.116 23.5991 150.063 23.7637 148.904 23.889C147.747 24.0144 146.665 24.0771 145.66 24.0771C144.273 24.0771 143.063 23.9361 142.029 23.654C140.997 23.3693 140.198 22.9004 139.631 22.2487C139.063 21.5944 138.78 20.7063 138.78 19.5845V19.5636C138.78 18.0839 139.339 17.0012 140.457 16.3143C141.577 15.6286 143.044 15.2852 144.855 15.2852C145.328 15.2852 145.79 15.2982 146.24 15.3217C146.689 15.3465 147.156 15.3975 147.645 15.4732V15.0971C147.645 14.3422 147.373 13.8172 146.83 13.5247C146.287 13.2321 145.55 13.0859 144.62 13.0859C143.972 13.0859 143.199 13.1616 142.301 13.3105C141.405 13.4607 140.578 13.6696 139.819 13.9374L140.838 10.0612C141.154 9.95408 141.569 9.85222 142.081 9.75818C142.593 9.66154 143.155 9.57796 143.769 9.50743C144.381 9.43822 144.987 9.40295 145.587 9.40295ZM143.345 19.2815V19.3024C143.345 19.8078 143.567 20.1787 144.014 20.4151C144.463 20.6528 145.075 20.7703 145.848 20.7703C146.132 20.7703 146.429 20.7586 146.736 20.7338C147.041 20.7103 147.344 20.6815 147.645 20.6502V18.0016C147.344 17.9389 147.034 17.8971 146.71 17.8762C146.386 17.8527 146.098 17.8397 145.848 17.8397C145.075 17.8397 144.463 17.9468 144.014 18.1583C143.567 18.3712 143.345 18.746 143.345 19.2815Z" fill="white" style="fill:white;fill-opacity:1;"/>
<path d="M160.994 9.40295C162.317 9.40295 163.463 9.57273 164.432 9.90968C165.403 10.2479 166.152 10.8187 166.678 11.6231C167.207 12.425 167.472 13.5351 167.472 14.956V23.3928C166.524 23.5991 165.471 23.7637 164.312 23.889C163.154 24.0144 162.073 24.0771 161.067 24.0771C159.681 24.0771 158.471 23.9361 157.437 23.654C156.405 23.3693 155.606 22.9004 155.039 22.2487C154.471 21.5944 154.188 20.7063 154.188 19.5845V19.5636C154.188 18.0839 154.746 17.0012 155.864 16.3143C156.985 15.6286 158.452 15.2852 160.263 15.2852C160.736 15.2852 161.198 15.2982 161.647 15.3217C162.097 15.3465 162.564 15.3975 163.053 15.4732V15.0971C163.053 14.3422 162.781 13.8172 162.238 13.5247C161.694 13.2321 160.958 13.0859 160.028 13.0859C159.38 13.0859 158.607 13.1616 157.708 13.3105C156.813 13.4607 155.986 13.6696 155.227 13.9374L156.246 10.0612C156.562 9.95408 156.977 9.85222 157.489 9.75818C158.001 9.66154 158.563 9.57796 159.176 9.50743C159.789 9.43822 160.395 9.40295 160.994 9.40295ZM158.753 19.2815V19.3024C158.753 19.8078 158.975 20.1787 159.422 20.4151C159.871 20.6528 160.482 20.7703 161.256 20.7703C161.54 20.7703 161.837 20.7586 162.144 20.7338C162.449 20.7103 162.752 20.6815 163.053 20.6502V18.0016C162.752 17.9389 162.441 17.8971 162.117 17.8762C161.794 17.8527 161.506 17.8397 161.256 17.8397C160.482 17.8397 159.871 17.9468 159.422 18.1583C158.975 18.3712 158.753 18.746 158.753 19.2815Z" fill="white" style="fill:white;fill-opacity:1;"/>
<path d="M174.323 23.6749H169.883V10.0403C170.652 9.89794 171.455 9.77256 172.291 9.66417C173.127 9.55316 173.906 9.46565 174.631 9.40297C175.355 9.33767 175.945 9.30371 176.402 9.30371C177.269 9.30371 178.096 9.38729 178.883 9.55446C179.674 9.71902 180.379 10.0063 180.999 10.4164C181.622 10.8278 182.112 11.3802 182.467 12.0724C182.822 12.7659 183 13.6474 183 14.7158V23.6749H178.554V15.2381C178.554 14.5277 178.364 14.0236 177.985 13.7232C177.609 13.4241 177.026 13.2739 176.24 13.2739C175.718 13.2739 175.078 13.3392 174.323 13.4672V23.6749Z" fill="white" style="fill:white;fill-opacity:1;"/>
<path d="M92.8889 51.2678H80.6492V32.1011H92.7688V33.6369H82.2791V40.5848H91.8703V42.1207H82.2791V49.732H92.8889V51.2678Z" fill="white" style="fill:white;fill-opacity:1;"/>
<path d="M101.301 44.6021L106.405 51.2679H104.493L100.308 45.8558L96.1031 51.2679H94.2799L99.389 44.6282L94.5672 38.3176H96.5053L100.382 43.3483L104.232 38.3176H106.123L101.301 44.6021Z" fill="white" style="fill:white;fill-opacity:1;"/>
<path d="M110.02 56.4918H108.369V38.7669C109.107 38.5449 109.901 38.3516 110.751 38.187C111.604 38.0199 112.534 37.9363 113.541 37.9363C114.975 37.9363 116.205 38.2367 117.229 38.8348C118.253 39.4343 119.036 40.2427 119.58 41.2587C120.123 42.2761 120.395 43.4306 120.395 44.7222V44.7692C120.395 46.0439 120.126 47.1906 119.59 48.2066C119.057 49.224 118.282 50.0324 117.265 50.6305C116.248 51.23 115.022 51.5291 113.588 51.5291C113.005 51.5291 112.415 51.469 111.817 51.3515C111.217 51.2339 110.618 51.0955 110.02 50.9388V56.4918ZM113.541 50.0402C114.676 50.0402 115.628 49.8038 116.398 49.3298C117.171 48.857 117.751 48.2197 118.138 47.4178C118.524 46.6133 118.718 45.7305 118.718 44.7692V44.7222C118.718 43.744 118.524 42.8547 118.138 42.0528C117.751 41.2483 117.171 40.6096 116.398 40.1356C115.628 39.6628 114.676 39.4251 113.541 39.4251C112.864 39.4251 112.247 39.4617 111.686 39.5348C111.129 39.6053 110.574 39.702 110.02 39.8274V49.4238C110.587 49.5805 111.17 49.7242 111.77 49.8522C112.368 49.9775 112.958 50.0402 113.541 50.0402Z" fill="white" style="fill:white;fill-opacity:1;"/>
<path d="M124.671 51.2679H123.021V38.8609C123.807 38.6415 124.594 38.4979 125.382 38.4273C126.168 38.3542 126.83 38.3176 127.367 38.3176H129.707V39.8535H127.769C127.201 39.8535 126.621 39.894 126.03 39.9736C125.441 40.0507 124.987 40.1356 124.671 40.2296V51.2679Z" fill="white" style="fill:white;fill-opacity:1;"/>
<path d="M144.239 44.8633V45.2394H133.441C133.516 46.1379 133.761 46.9555 134.172 47.6894C134.582 48.4208 135.154 48.9994 135.886 49.4238C136.617 49.8496 137.487 50.0611 138.497 50.0611C139.472 50.0611 140.322 49.9083 141.047 49.6014C141.774 49.2958 142.382 48.9523 142.87 48.5723L143.58 49.8992C142.995 50.3249 142.285 50.7024 141.449 51.0328C140.616 51.3632 139.617 51.5291 138.45 51.5291C137.064 51.5291 135.866 51.2391 134.856 50.6567C133.849 50.0716 133.078 49.271 132.542 48.2536C132.005 47.2376 131.738 46.0674 131.738 44.7431V44.7222C131.738 43.4306 131.985 42.2722 132.479 41.2483C132.977 40.2244 133.694 39.4173 134.632 38.8244C135.568 38.2327 136.682 37.9363 137.975 37.9363C139.333 37.9363 140.475 38.2327 141.402 38.8244C142.332 39.4173 143.037 40.2335 143.518 41.2744C143.998 42.3127 144.239 43.509 144.239 44.8633ZM137.975 39.4042C137.111 39.4042 136.358 39.5975 135.718 39.9841C135.081 40.3707 134.572 40.8957 134.193 41.5565C133.817 42.2186 133.573 42.9591 133.462 43.7767H142.515C142.452 42.9722 142.243 42.2395 141.888 41.5774C141.533 40.9166 141.031 40.3889 140.383 39.9945C139.738 39.6014 138.936 39.4042 137.975 39.4042Z" fill="white" style="fill:white;fill-opacity:1;"/>
<path d="M151.496 51.5291C150.579 51.5291 149.707 51.4481 148.879 51.2888C148.054 51.132 147.246 50.8813 146.46 50.5365L146.936 49.1417C147.642 49.4552 148.385 49.6876 149.166 49.8365C149.946 49.9867 150.676 50.0611 151.355 50.0611C152.124 50.0611 152.809 49.9984 153.408 49.8731C154.006 49.7477 154.479 49.5322 154.824 49.2253C155.171 48.9158 155.346 48.4939 155.346 47.9611C155.346 47.5327 155.259 47.1749 155.085 46.885C154.914 46.5924 154.589 46.3338 154.108 46.1066C153.628 45.8767 152.922 45.6443 151.992 45.4066L150.812 45.1245C149.345 44.7457 148.304 44.2612 147.688 43.6722C147.074 43.0806 146.768 42.2879 146.768 41.2953C146.768 40.2544 147.197 39.4395 148.054 38.8505C148.913 38.2589 150.099 37.9624 151.611 37.9624C153.488 37.9624 155.103 38.2941 156.459 38.955L155.963 40.3236C155.332 40.0102 154.649 39.783 153.915 39.6393C153.183 39.4969 152.48 39.4251 151.804 39.4251C150.731 39.4251 149.903 39.5714 149.318 39.8639C148.735 40.1565 148.445 40.6253 148.445 41.2692C148.445 41.8856 148.686 42.3636 149.166 42.7005C149.647 43.0388 150.485 43.3575 151.684 43.6565L152.724 43.9439C154.283 44.3383 155.389 44.8306 156.041 45.4222C156.695 46.0112 157.023 46.817 157.023 47.8409C157.023 49.0398 156.545 49.954 155.592 50.5835C154.641 51.2143 153.275 51.5291 151.496 51.5291Z" fill="white" style="fill:white;fill-opacity:1;"/>
<path d="M164.139 51.5291C163.222 51.5291 162.35 51.4481 161.522 51.2888C160.696 51.132 159.889 50.8813 159.103 50.5365L159.578 49.1417C160.285 49.4552 161.028 49.6876 161.809 49.8365C162.589 49.9867 163.319 50.0611 163.998 50.0611C164.767 50.0611 165.451 49.9984 166.051 49.8731C166.649 49.7477 167.122 49.5322 167.467 49.2253C167.814 48.9158 167.989 48.4939 167.989 47.9611C167.989 47.5327 167.902 47.1749 167.728 46.885C167.557 46.5924 167.232 46.3338 166.751 46.1066C166.27 45.8767 165.565 45.6443 164.635 45.4066L163.455 45.1245C161.988 44.7457 160.947 44.2612 160.331 43.6722C159.717 43.0806 159.411 42.2879 159.411 41.2953C159.411 40.2544 159.84 39.4395 160.696 38.8505C161.556 38.2589 162.742 37.9624 164.254 37.9624C166.131 37.9624 167.746 38.2941 169.102 38.955L168.605 40.3236C167.975 40.0102 167.292 39.783 166.558 39.6393C165.826 39.4969 165.122 39.4251 164.447 39.4251C163.374 39.4251 162.546 39.5714 161.961 39.8639C161.378 40.1565 161.088 40.6253 161.088 41.2692C161.088 41.8856 161.328 42.3636 161.809 42.7005C162.29 43.0388 163.128 43.3575 164.327 43.6565L165.367 43.9439C166.926 44.3383 168.032 44.8306 168.684 45.4222C169.338 46.0112 169.666 46.817 169.666 47.8409C169.666 49.0398 169.188 49.954 168.235 50.5835C167.284 51.2143 165.918 51.5291 164.139 51.5291Z" fill="white" style="fill:white;fill-opacity:1;"/>
</svg>
