<svg width="25" height="24" viewBox="0 0 25 24" fill="none" xmlns="http://www.w3.org/2000/svg">
<path d="M15.3284 13.7468C15.1598 13.9092 14.9344 14 14.6998 14C14.4652 14 14.2398 13.9092 14.0712 13.7468C12.5269 12.2504 10.4573 10.5788 11.4666 8.15187C12.0123 6.83966 13.3222 6 14.6998 6C16.0774 6 17.3873 6.83966 17.933 8.15187C18.941 10.5757 16.8765 12.2555 15.3284 13.7468Z" stroke="white" style="stroke:white;stroke-opacity:1;" stroke-width="1.5"/>
<path d="M14.6997 9.5H14.7087" stroke="white" style="stroke:white;stroke-opacity:1;" stroke-width="2" stroke-linecap="round" stroke-linejoin="round"/>
<path d="M22.1997 12C22.1997 17.5228 17.7225 22 12.1997 22C6.67686 22 2.19971 17.5228 2.19971 12C2.19971 6.47715 6.67686 2 12.1997 2C17.7225 2 22.1997 6.47715 22.1997 12Z" stroke="white" style="stroke:white;stroke-opacity:1;" stroke-width="1.5"/>
<path d="M9.19971 15L5.19971 19M15.1997 21L3.19971 9" stroke="white" style="stroke:white;stroke-opacity:1;" stroke-width="1.5" stroke-linecap="round"/>
</svg>
