<svg width="50" height="50" viewBox="0 0 50 50" fill="none" xmlns="http://www.w3.org/2000/svg">
<path d="M25 45.8333C23.2954 45.8333 21.6671 45.1475 18.4103 43.7756C10.3034 40.3612 6.25 38.6539 6.25 35.782V15.7132M25 45.8333C26.7046 45.8333 28.3329 45.1475 31.5898 43.7756C39.6967 40.3612 43.75 38.6539 43.75 35.782V15.7132M25 45.8333V25.0608M6.25 15.7132C6.25 16.9891 7.91994 17.7948 11.2598 19.4062L17.3457 22.3425C21.1017 24.1547 22.9798 25.0608 25 25.0608M6.25 15.7132C6.25 14.4373 7.91994 13.6316 11.2598 12.0201L14.5833 10.4166M43.75 15.7132C43.75 16.9891 42.08 17.7948 38.7402 19.4062L32.6544 22.3425C28.8983 24.1547 27.0202 25.0608 25 25.0608M43.75 15.7132C43.75 14.4373 42.08 13.6315 38.7402 12.0201L35.4167 10.4166M12.5 27.1381L16.6667 29.2154" stroke="#1E1E1E" style="stroke:#1E1E1E;stroke:color(display-p3 0.1176 0.1176 0.1176);stroke-opacity:1;" stroke-width="3" stroke-linecap="round" stroke-linejoin="round"/>
<path d="M20.8334 4.16663L25 8.33329M25 8.33329L29.1667 12.5M25 8.33329L20.8334 12.5M25 8.33329L29.1667 4.16663" stroke="#1E1E1E" style="stroke:#1E1E1E;stroke:color(display-p3 0.1176 0.1176 0.1176);stroke-opacity:1;" stroke-width="3" stroke-linecap="round"/>
</svg>
