<svg width="24" height="24" viewBox="0 0 24 24" fill="none" xmlns="http://www.w3.org/2000/svg">
<path d="M11 22.0001C10.1818 22.0001 9.40019 21.6699 7.83693 21.0096C3.94564 19.3658 2 18.5439 2 17.1614C2 16.7743 2 10.0646 2 7.00012M11 22.0001V11.3549M11 22.0001C11.3404 22.0001 11.6463 21.9429 12 21.8286M20 7.00012V11.5001" stroke="#1A66FF" style="stroke:#1A66FF;stroke:color(display-p3 0.1000 0.3984 1.0000);stroke-opacity:1;" stroke-width="1.5" stroke-linecap="round" stroke-linejoin="round"/>
<path d="M18 18.0006L18.9056 17.095M22 18.0001C22 15.791 20.2091 14.0001 18 14.0001C15.7909 14.0001 14 15.791 14 18.0001C14 20.2092 15.7909 22.0001 18 22.0001C20.2091 22.0001 22 20.2092 22 18.0001Z" stroke="#1A66FF" style="stroke:#1A66FF;stroke:color(display-p3 0.1000 0.3984 1.0000);stroke-opacity:1;" stroke-width="1.5" stroke-linecap="round" stroke-linejoin="round"/>
<path d="M7.32592 9.6915L4.40472 8.27797C2.80157 7.50222 2 7.11435 2 6.50012C2 5.88589 2.80157 5.49802 4.40472 4.72227L7.32592 3.30874C9.12883 2.43633 10.0303 2.00012 11 2.00012C11.9697 2.00012 12.8712 2.43632 14.6741 3.30874L17.5953 4.72227C19.1984 5.49802 20 5.88589 20 6.50012C20 7.11435 19.1984 7.50222 17.5953 8.27797L14.6741 9.6915C12.8712 10.5639 11.9697 11.0001 11 11.0001C10.0303 11.0001 9.12883 10.5639 7.32592 9.6915Z" stroke="#1A66FF" style="stroke:#1A66FF;stroke:color(display-p3 0.1000 0.3984 1.0000);stroke-opacity:1;" stroke-width="1.5" stroke-linecap="round" stroke-linejoin="round"/>
<path d="M5 12.0001L7 13.0001" stroke="#1A66FF" style="stroke:#1A66FF;stroke:color(display-p3 0.1000 0.3984 1.0000);stroke-opacity:1;" stroke-width="1.5" stroke-linecap="round" stroke-linejoin="round"/>
<path d="M16 4.00012L6 9.00012" stroke="#1A66FF" style="stroke:#1A66FF;stroke:color(display-p3 0.1000 0.3984 1.0000);stroke-opacity:1;" stroke-width="1.5" stroke-linecap="round" stroke-linejoin="round"/>
</svg>
