<svg width="24" height="24" viewBox="0 0 24 24" fill="none" xmlns="http://www.w3.org/2000/svg">
<path d="M21 7.00012V12.0001M3 7.00012C3 10.0646 3 16.7743 3 17.1614C3 18.5439 4.94564 19.3658 8.83693 21.0096C10.4002 21.6699 11.1818 22.0001 12 22.0001V11.3549" stroke="#1A66FF" style="stroke:#1A66FF;stroke:color(display-p3 0.1000 0.3984 1.0000);stroke-opacity:1;" stroke-width="1.5" stroke-linecap="round" stroke-linejoin="round"/>
<path d="M15 19.0001C15 19.0001 15.875 19.0001 16.75 21.0001C16.75 21.0001 19.5294 16.0001 22 15.0001" stroke="#1A66FF" style="stroke:#1A66FF;stroke:color(display-p3 0.1000 0.3984 1.0000);stroke-opacity:1;" stroke-width="1.5" stroke-linecap="round" stroke-linejoin="round"/>
<path d="M8.32592 9.6915L5.40472 8.27797C3.80157 7.50222 3 7.11435 3 6.50012C3 5.88589 3.80157 5.49802 5.40472 4.72227L8.32592 3.30874C10.1288 2.43633 11.0303 2.00012 12 2.00012C12.9697 2.00012 13.8712 2.43632 15.6741 3.30874L18.5953 4.72227C20.1984 5.49802 21 5.88589 21 6.50012C21 7.11435 20.1984 7.50222 18.5953 8.27797L15.6741 9.6915C13.8712 10.5639 12.9697 11.0001 12 11.0001C11.0303 11.0001 10.1288 10.5639 8.32592 9.6915Z" stroke="#1A66FF" style="stroke:#1A66FF;stroke:color(display-p3 0.1000 0.3984 1.0000);stroke-opacity:1;" stroke-width="1.5" stroke-linecap="round" stroke-linejoin="round"/>
<path d="M6 12.0001L8 13.0001" stroke="#1A66FF" style="stroke:#1A66FF;stroke:color(display-p3 0.1000 0.3984 1.0000);stroke-opacity:1;" stroke-width="1.5" stroke-linecap="round" stroke-linejoin="round"/>
<path d="M17 4.00012L7 9.00012" stroke="#1A66FF" style="stroke:#1A66FF;stroke:color(display-p3 0.1000 0.3984 1.0000);stroke-opacity:1;" stroke-width="1.5" stroke-linecap="round" stroke-linejoin="round"/>
</svg>
