<svg width="24" height="25" viewBox="0 0 24 25" fill="none" xmlns="http://www.w3.org/2000/svg">
<path d="M18.6436 4.5C18.4955 4.11742 18.2933 3.79898 18.0175 3.52513C16.9851 2.5 15.3234 2.5 12 2.5C8.67661 2.5 7.01491 2.5 5.98247 3.52513C5.70666 3.79898 5.50453 4.11742 5.3564 4.5M5 18.5C5.08715 19.9194 5.32629 20.8233 5.98247 21.4749C7.01491 22.5 8.67661 22.5 12 22.5C15.3234 22.5 16.9851 22.5 18.0175 21.4749C18.6737 20.8233 18.9128 19.9194 19 18.5" stroke="#1A66FF" style="stroke:#1A66FF;stroke:color(display-p3 0.1000 0.3984 1.0000);stroke-opacity:1;" stroke-width="1.5" stroke-linecap="round"/>
<path d="M6 10.5L8 12.5M8 10.5L6 12.5" stroke="#1A66FF" style="stroke:#1A66FF;stroke:color(display-p3 0.1000 0.3984 1.0000);stroke-opacity:1;" stroke-width="1.5" stroke-linecap="round" stroke-linejoin="round"/>
<path d="M11 10.5L13 12.5M13 10.5L11 12.5" stroke="#1A66FF" style="stroke:#1A66FF;stroke:color(display-p3 0.1000 0.3984 1.0000);stroke-opacity:1;" stroke-width="1.5" stroke-linecap="round" stroke-linejoin="round"/>
<path d="M16 10.5L18 12.5M18 10.5L16 12.5" stroke="#1A66FF" style="stroke:#1A66FF;stroke:color(display-p3 0.1000 0.3984 1.0000);stroke-opacity:1;" stroke-width="1.5" stroke-linecap="round" stroke-linejoin="round"/>
<path d="M17 7.5H7C5.11438 7.5 4.17157 7.5 3.58579 8.08579C3 8.67157 3 9.61438 3 11.5C3 13.3856 3 14.3284 3.58579 14.9142C4.17157 15.5 5.11438 15.5 7 15.5H17C18.8856 15.5 19.8284 15.5 20.4142 14.9142C21 14.3284 21 13.3856 21 11.5C21 9.61438 21 8.67157 20.4142 8.08579C19.8284 7.5 18.8856 7.5 17 7.5Z" stroke="#1A66FF" style="stroke:#1A66FF;stroke:color(display-p3 0.1000 0.3984 1.0000);stroke-opacity:1;" stroke-width="1.5" stroke-linecap="round" stroke-linejoin="round"/>
<path d="M12 19.5V19.51" stroke="#1A66FF" style="stroke:#1A66FF;stroke:color(display-p3 0.1000 0.3984 1.0000);stroke-opacity:1;" stroke-width="2" stroke-linecap="round" stroke-linejoin="round"/>
</svg>
