<svg width="24" height="24" viewBox="0 0 24 24" fill="none" xmlns="http://www.w3.org/2000/svg">
<path d="M14.9717 7.5C14.9717 7.5 15.4717 7.5 15.9717 8.5C15.9717 8.5 17.5599 6 18.9717 5.5" stroke="#1A66FF" style="stroke:#1A66FF;stroke:color(display-p3 0.1000 0.3984 1.0000);stroke-opacity:1;" stroke-width="1.5" stroke-linecap="round" stroke-linejoin="round"/>
<path d="M18.9957 15.042L19.0244 19.5927C18.9751 20.9362 17.8682 22 16.5195 22H5.39315C4.00881 22 2.88657 20.8814 2.88657 19.5014L2.97274 13.0355M8.98135 6.0129L5.14794 5.94884C4.2583 5.92732 3.46085 6.49283 3.18952 7.33765L2.09237 10.7538C1.96258 11.1579 1.95362 11.5994 2.16912 11.9654C2.95467 13.2993 5.06379 15.1192 8.41757 13.163M7.44621 11.3322C7.83631 12.6005 9.36562 14.8259 12.4863 13.5372" stroke="#1A66FF" style="stroke:#1A66FF;stroke:color(display-p3 0.1000 0.3984 1.0000);stroke-opacity:1;" stroke-width="1.5" stroke-linecap="round" stroke-linejoin="round"/>
<path d="M22.0006 7.01618C22.0006 9.78653 19.7588 12.0324 16.9935 12.0324C14.2281 12.0324 11.9863 9.78653 11.9863 7.01618C11.9863 4.24582 14.2281 2 16.9935 2C19.7588 2 22.0006 4.24582 22.0006 7.01618Z" stroke="#1A66FF" style="stroke:#1A66FF;stroke:color(display-p3 0.1000 0.3984 1.0000);stroke-opacity:1;" stroke-width="1.5" stroke-linecap="round"/>
</svg>
