<svg width="24" height="24" viewBox="0 0 24 24" fill="none" xmlns="http://www.w3.org/2000/svg">
<path d="M21.8606 5.39188C22.2875 6.49647 21.6888 7.25272 20.5301 7.99766C19.5951 8.59872 18.4039 9.24987 17.1417 10.3631C15.9044 11.4544 14.6968 12.7688 13.6237 14.0626C12.5549 15.3511 11.6465 16.5861 11.0046 17.5006C10.5898 18.0915 10.011 18.973 10.011 18.973C9.60281 19.6188 8.86895 20.0097 8.08206 19.9999C7.295 19.9901 6.57208 19.5813 6.18156 18.9252C5.18328 17.2481 4.41296 16.5858 4.05891 16.3479C3.11158 15.7113 2 15.6172 2 14.1336C2 12.9555 2.99489 12.0004 4.22216 12.0004C5.08862 12.0324 5.89398 12.3731 6.60756 12.8527C7.06369 13.1592 7.54689 13.5646 8.04948 14.0982C8.63934 13.2937 9.35016 12.3654 10.147 11.4048C11.3042 10.0098 12.6701 8.51321 14.1349 7.22128C15.5748 5.95127 17.2396 4.76247 19.0042 4.13393C20.1549 3.72409 21.4337 4.2873 21.8606 5.39188Z" stroke="#1A66FF" style="stroke:#1A66FF;stroke:color(display-p3 0.1000 0.3984 1.0000);stroke-opacity:1;" stroke-width="1.5" stroke-linecap="round" stroke-linejoin="round"/>
</svg>
