<svg width="25" height="24" viewBox="0 0 25 24" fill="none" xmlns="http://www.w3.org/2000/svg">
<path d="M15.2998 7.5C15.2998 4.73858 13.0612 2.5 10.2998 2.5C7.53838 2.5 5.2998 4.73858 5.2998 7.5C5.2998 10.2614 7.53838 12.5 10.2998 12.5C13.0612 12.5 15.2998 10.2614 15.2998 7.5Z" stroke="#8C8C8C" style="stroke:#8C8C8C;stroke:color(display-p3 0.5490 0.5490 0.5490);stroke-opacity:1;" stroke-width="1.5" stroke-linecap="round" stroke-linejoin="round"/>
<path d="M3.2998 19.5C3.2998 15.634 6.43381 12.5 10.2998 12.5C11.3734 12.5 12.3905 12.7417 13.2998 13.1736" stroke="#8C8C8C" style="stroke:#8C8C8C;stroke:color(display-p3 0.5490 0.5490 0.5490);stroke-opacity:1;" stroke-width="1.5" stroke-linecap="round" stroke-linejoin="round"/>
<path d="M18.7998 20C19.7291 20 20.54 19.493 20.9708 18.7404M18.7998 20C17.8705 20 17.0596 19.493 16.6288 18.7404M18.7998 20V21.5M20.9708 18.7404L22.2998 19.4998M20.9708 18.7404C21.1802 18.3749 21.2998 17.9514 21.2998 17.5C21.2998 17.0485 21.1801 16.6249 20.9707 16.2593M16.6288 18.7404L15.2998 19.4998M16.6288 18.7404C16.4194 18.3749 16.2998 17.9514 16.2998 17.5C16.2998 17.0485 16.4195 16.6249 16.6289 16.2593M18.7998 15C19.729 15 20.5398 15.5069 20.9707 16.2593M18.7998 15C17.8706 15 17.0598 15.5069 16.6289 16.2593M18.7998 15V13.5M20.9707 16.2593L22.2998 15.4998M16.6289 16.2593L15.2998 15.4998" stroke="#8C8C8C" style="stroke:#8C8C8C;stroke:color(display-p3 0.5490 0.5490 0.5490);stroke-opacity:1;" stroke-width="1.5" stroke-linecap="round" stroke-linejoin="round"/>
</svg>
