<svg width="18" height="19" viewBox="0 0 18 19" fill="none" xmlns="http://www.w3.org/2000/svg">
<path d="M7.83585 2.73763L3.71083 4.47448C2.82077 4.84924 2.37575 5.03661 2.12537 5.4137C1.875 5.79078 1.875 6.27365 1.875 7.23939V16.625H4.125V9.125C4.125 8.4179 4.125 8.06435 4.34467 7.84467C4.56434 7.625 4.91789 7.625 5.625 7.625H12.375C13.0821 7.625 13.4356 7.625 13.6553 7.84467C13.875 8.06435 13.875 8.4179 13.875 9.125V16.625H16.125V7.23939C16.125 6.27365 16.125 5.79078 15.8747 5.4137C15.6242 5.03661 15.1793 4.84924 14.2892 4.47448L10.1642 2.73763C9.59003 2.49588 9.30292 2.375 9 2.375C8.69708 2.375 8.40997 2.49588 7.83585 2.73763Z" stroke="#1A66FF" style="stroke:#1A66FF;stroke:color(display-p3 0.1000 0.3984 1.0000);stroke-opacity:1;" stroke-linecap="round" stroke-linejoin="round"/>
<path d="M8.25 5.375H9.75" stroke="#1A66FF" style="stroke:#1A66FF;stroke:color(display-p3 0.1000 0.3984 1.0000);stroke-opacity:1;" stroke-linecap="round" stroke-linejoin="round"/>
<path d="M9.75 12.125H8.25C7.5429 12.125 7.18934 12.125 6.96967 12.3447C6.75 12.5644 6.75 12.9179 6.75 13.625V15.125C6.75 15.8321 6.75 16.1856 6.96967 16.4053C7.18934 16.625 7.5429 16.625 8.25 16.625H9.75C10.4571 16.625 10.8106 16.625 11.0303 16.4053C11.25 16.1856 11.25 15.8321 11.25 15.125V13.625C11.25 12.9179 11.25 12.5644 11.0303 12.3447C10.8106 12.125 10.4571 12.125 9.75 12.125Z" stroke="#1A66FF" style="stroke:#1A66FF;stroke:color(display-p3 0.1000 0.3984 1.0000);stroke-opacity:1;" stroke-linecap="round" stroke-linejoin="round"/>
</svg>
